<svg width="400" height="400" version="1.1" xmlns="http://www.w3.org/2000/svg" desc="Created with imagetracer.js version 1.2.6" ><path fill="rgb(253,254,253)" stroke="rgb(253,254,253)" stroke-width="1" opacity="1" d="M 197.5 48 Q 203.3 46.3 202 50 L 197.5 49 L 197.5 48 Z " /><path fill="rgb(253,254,253)" stroke="rgb(253,254,253)" stroke-width="1" opacity="1" d="M 203.5 49 Q 205.3 52.1 207 50.5 L 205.5 53 L 207 53.5 L 206 56.5 L 208 56.5 L 207.5 60 L 207 58 L 205 58 Q 206.1 55.3 203.5 56 L 203.5 55 Q 205.8 55.8 205 53.5 L 203.5 49 Z " /><path fill="rgb(253,254,253)" stroke="rgb(253,254,253)" stroke-width="1" opacity="1" d="M 194.5 55 L 196 55.5 L 194 56.5 Q 196.8 58.3 192.5 60 L 192 57.5 L 194.5 55 Z " /><path fill="rgb(253,254,253)" stroke="rgb(253,254,253)" stroke-width="1" opacity="1" d="M 177.5 64 L 179.5 64 Q 185 62.5 186.5 65 L 188.5 64 L 187.5 66 L 183.5 65 L 181 68.5 L 184 72.5 L 182.5 72 L 181 72.5 L 184 74.5 L 182 75 L 179.5 79 L 180 77.5 L 181 75.5 L 177.5 75 L 176 75.5 L 177.5 73 Q 180.1 73.8 179 70.5 L 180 68.5 L 178.5 66 L 178 69 Q 174.7 70.3 176 65.5 L 177.5 64 Z " /><path fill="rgb(253,254,253)" stroke="rgb(253,254,253)" stroke-width="1" opacity="1" d="M 212.5 64 L 215 65.5 L 215.5 64 L 216 66.5 L 215 67.5 L 218.5 71 L 220.5 70 L 221.5 75 L 222.5 72 L 223 81.5 L 224 82.5 L 221.5 83 Q 219.3 83.8 220 81.5 L 220 79.5 L 218.5 77 Q 217.3 79.3 216 76.5 L 218 76.5 Q 218.7 73.9 216 75 L 216 72.5 L 213.5 69 Q 212.3 71.3 211 68.5 L 213 67.5 L 212.5 64 Z " /><path fill="rgb(253,254,253)" stroke="rgb(253,254,253)" stroke-width="1" opacity="1" d="M 222 64 L 224 64 L 224 69 L 222 69 L 222 64 Z " /><path fill="rgb(253,254,253)" stroke="rgb(253,254,253)" stroke-width="1" opacity="1" d="M 186.5 67 Q 189.5 68.5 186.5 70 Q 183.2 71.1 184 68.5 L 186 68.5 L 186.5 67 Z " /><path fill="rgb(253,254,253)" stroke="rgb(253,254,253)" stroke-width="1" opacity="1" d="M 177.5 77 L 178 79.5 L 179 81.5 L 176 83.5 L 175 89 L 173 89.5 L 173.5 91 Q 172.3 88.8 171 91.5 L 170 95.5 L 171 97.5 L 170 97.5 L 170 96 Q 166.2 97.5 167 94.5 L 169 91.5 L 168 89 L 173 88.5 Q 170.8 87.3 173.5 86 Q 175.8 86.8 175 84.5 L 173.5 85 L 171 86.5 Q 171.8 89.1 168.5 88 L 168 85.5 Q 168.8 83.3 166.5 84 L 164 80 L 174.5 80 L 175 81.5 L 176 81.5 L 177 79.5 Q 174.8 78.3 177.5 77 Z M 172 82 L 172 83 L 174 83 L 172 82 Z " /><path fill="rgb(253,254,253)" stroke="rgb(253,254,253)" stroke-width="1" opacity="1" d="M 225 85 L 232 85 L 232 87.5 L 233 88.5 L 234 104 Q 231.3 105.1 232 102.5 L 230.5 98 L 232 98.5 Q 232.8 96.3 230.5 97 L 227 94.5 L 226 92.5 L 228 88.5 L 226 88.5 L 226.5 87 Q 223.9 87.7 225 85 Z M 230 90 L 228 93 L 229 95 L 230 93 L 230 90 Z M 232 92 L 231 96 L 232 96 L 232 92 Z " /><path fill="rgb(253,254,253)" stroke="rgb(253,254,253)" stroke-width="1" opacity="1" d="M 160 86 Q 162.7 84.9 162 87.5 L 163 90.5 L 162 96 L 166 96 Q 164.9 98.7 167.5 98 Q 170.8 99.8 167 101.5 L 166.5 104 L 164.5 99 Q 161.5 98.1 163 102.5 Q 166.5 104 164 105.5 L 162 112 L 160 112 L 160 115 Q 157.3 113.9 158 116.5 L 154.5 122 L 153 121.5 Q 155.5 120 152 118.5 L 151.5 117 L 149 121.5 L 153 123.5 L 151.5 129 L 146 128 L 145.5 125 L 144 125.5 Q 142.6 115.9 145 112 L 148 112.5 L 147 116.5 Q 148.3 119.3 149.5 117 L 151 116.5 L 149 112.5 L 152 111 L 152.5 113 L 154.5 113 L 157.5 115 L 161 109.5 L 160.5 108 L 162 108.5 L 163 106.5 L 162 104 L 159 102.5 L 160 98 Q 163 99 162 96 L 160 95.5 L 160 86 Z M 154 113 L 152 117 L 154 116 L 155 119 L 155 117 L 157 117 L 157 116 L 154 113 Z " /><path fill="rgb(253,254,253)" stroke="rgb(253,254,253)" stroke-width="1" opacity="1" d="M 237.5 102 L 238.5 105 L 240 104.5 L 239 107.5 L 240 110.5 L 239 110.5 L 238.5 108 L 237 108.5 L 238 106.5 L 236 105.5 L 235.5 107 L 235 105.5 L 237.5 102 Z " /><path fill="rgb(253,254,253)" stroke="rgb(253,254,253)" stroke-width="1" opacity="1" d="M 241 112 L 248 112 L 248 117 Q 245 116 246 119 L 248 119.5 L 247 121.5 L 248 123.5 L 247 123.5 Q 243.3 120.4 243 115 Q 240.3 113.9 241 116.5 L 242.5 119 L 239 114.5 L 241 114 L 241 112 Z M 243 113 L 243 115 L 247 115 L 243 113 Z " /><path fill="rgb(253,254,253)" stroke="rgb(253,254,253)" stroke-width="1" opacity="1" d="M 254.5 120 L 255 122.5 L 253.5 124 Q 251.3 124.8 252 122.5 L 254.5 120 Z " /><path fill="rgb(253,254,253)" stroke="rgb(253,254,253)" stroke-width="1" opacity="1" d="M 154.5 124 L 154 125.5 L 153.5 127 L 153 125.5 L 154.5 124 Z " /><path fill="rgb(253,254,253)" stroke="rgb(253,254,253)" stroke-width="1" opacity="1" d="M 250.5 128 Q 254.7 126.7 253 131.5 L 255 130.5 L 255.5 129 L 256 130.5 L 255 133.5 L 256 138.5 L 254 137.5 L 253 133 L 250 132.5 Q 252.5 131 249 129.5 L 250.5 128 Z " /><path fill="rgb(253,254,253)" stroke="rgb(253,254,253)" stroke-width="1" opacity="1" d="M 148.5 131 L 147.5 133 L 146 132.5 L 148.5 131 Z " /><path fill="rgb(253,254,253)" stroke="rgb(253,254,253)" stroke-width="1" opacity="1" d="M 144.5 134 L 147 134.5 L 144.5 135 L 144.5 134 Z " /><path fill="rgb(253,254,253)" stroke="rgb(253,254,253)" stroke-width="1" opacity="1" d="M 142 136 L 144 136.5 L 144 143.5 L 142 142.5 L 142 136 Z " /><path fill="rgb(253,254,253)" stroke="rgb(253,254,253)" stroke-width="1" opacity="1" d="M 128 144 L 131 144 Q 129.3 148.1 133.5 147 L 135 144 L 138 144.5 L 136 145.5 L 138.5 147 L 140 146.5 L 139.5 149 L 137 147.5 L 136.5 149 L 134.5 149 Q 132.3 148.3 133 150.5 L 132.5 153 L 128 152.5 L 129 148.5 L 128 144 Z " /><path fill="rgb(253,254,253)" stroke="rgb(253,254,253)" stroke-width="1" opacity="1" d="M 259 144 Q 262.8 143 264 145.5 L 265 152 L 271 152.5 L 267 153.5 L 270 155 L 270.5 159 L 272 158.5 Q 274.6 165.8 268.5 164 L 270.5 160 L 267.5 161 L 268 159.5 L 267.5 158 L 266 158.5 L 267 156.5 L 263 154.5 L 265 153.5 L 261 151.5 L 263 150.5 L 260 148.5 L 261 146 Q 258 147 259 144 Z " /><path fill="rgb(253,254,253)" stroke="rgb(253,254,253)" stroke-width="1" opacity="1" d="M 135.5 152 L 135.5 155 Q 133.3 155.8 134 153.5 L 135.5 152 Z " /><path fill="rgb(253,254,253)" stroke="rgb(253,254,253)" stroke-width="1" opacity="1" d="M 130.5 156 L 132 159.5 Q 128.5 161 131 162.5 L 130.5 164 L 130 162 Q 127.3 160.9 128 163.5 L 129 166 Q 126 164.8 127 168.5 L 126 170.5 L 126.5 172 L 123.5 167 L 122 168.5 L 123.5 171 L 122 171.5 L 122.5 173 L 121 172.5 L 122 174.5 L 119 176 L 122 169 Q 119.3 170.1 120 167.5 Q 122.3 166.3 119.5 165 L 116 166.5 L 114 176 Q 118.1 174.7 117 178 Q 113.6 177.3 112.5 180 L 112 164 L 115 162.5 L 115.5 160 L 126.5 160 L 128 160.5 Q 126.5 156.1 129.5 157 L 130.5 156 Z M 129 158 L 130 161 L 131 159 L 129 158 Z M 124 162 L 123 164 L 127 163 L 124 162 Z " /><path fill="rgb(253,254,253)" stroke="rgb(253,254,253)" stroke-width="1" opacity="1" d="M 270.5 165 Q 272.8 164.3 272 166.5 L 270.5 165 Z " /><path fill="rgb(253,254,253)" stroke="rgb(253,254,253)" stroke-width="1" opacity="1" d="M 273 166 Q 280.1 164.3 282 168.5 L 282 183.5 L 285 186.5 L 281.5 184 Q 278.5 184.9 280 180.5 L 278 176 Q 281.3 177.1 280 173 L 277.5 172 L 275 173.5 Q 278.5 172 276 170.5 L 274.5 168 Q 271.9 168.7 273 166 Z " /><path fill="rgb(253,254,253)" stroke="rgb(253,254,253)" stroke-width="1" opacity="1" d="M 113.5 182 L 115.5 183 L 117.5 182 L 117 183.5 L 115 186.5 L 115.5 188 L 113.5 182 Z " /><path fill="rgb(253,254,253)" stroke="rgb(253,254,253)" stroke-width="1" opacity="1" d="M 285.5 182 L 288 185.5 L 286.5 185 Q 283.4 185.7 285.5 182 Z " /><path fill="rgb(253,254,253)" stroke="rgb(253,254,253)" stroke-width="1" opacity="1" d="M 286.5 187 Q 289 188 288 192.5 L 285 190.5 L 286.5 187 Z " /><path fill="rgb(253,254,253)" stroke="rgb(253,254,253)" stroke-width="1" opacity="1" d="M 112.5 190 L 114 190.5 L 112 191 L 110.5 195 L 109 194.5 L 110 196.5 L 108 197 L 105.5 203 Q 102.3 201.3 106 199.5 L 103.5 197 Q 100.3 197.8 101 202.5 L 106 204.5 L 104 205 L 105 207.5 L 103 207.5 L 102 211.5 Q 104 209.8 106 213.5 L 104.5 214 L 101.5 213 Q 97.9 215.1 98 220 Q 95.3 221.1 96 218.5 L 95 216.5 L 96 212 L 98.5 211 L 100.5 212 L 100 210.5 L 98.5 207 L 96 206.5 L 98 203 L 96 202.5 L 96 194.5 L 98 194.5 Q 97 190.8 100 192 L 100.5 198 Q 103.3 196.8 101 195.5 Q 100.3 191.8 102.5 191 L 105 192.5 L 104 195 L 107.5 195 L 112.5 190 Z M 105 196 L 105 198 L 107 199 Q 108 195 105 196 Z " /><path fill="rgb(253,254,253)" stroke="rgb(253,254,253)" stroke-width="1" opacity="1" d="M 289.5 192 L 292.5 193 L 295 192 L 296 197 L 304 197 L 304 199.5 Q 302.8 202.3 301.5 200 Q 295.4 198.8 296 201.5 L 295 203.5 L 296 207 Q 293.3 208.1 294 205.5 L 293 202.5 L 292 198.5 Q 294.7 196.7 290.5 195 L 289 195.5 L 289.5 197 L 287.5 194 L 289 194.5 L 289.5 192 Z " /><path fill="rgb(253,254,253)" stroke="rgb(253,254,253)" stroke-width="1" opacity="1" d="M 300 208 Q 305.6 206.1 304 211 Q 298.4 212.9 300 208 Z " /><path fill="rgb(253,254,253)" stroke="rgb(253,254,253)" stroke-width="1" opacity="1" d="M 295.5 213 L 298 213.5 L 295 222 Q 292 221 293 224 L 290.5 224 L 289 220.5 L 291 220.5 L 293.5 215 L 295 215.5 L 295.5 213 Z M 294 218 L 292 220 L 293 222 L 295 219 L 294 218 Z " /><path fill="rgb(253,254,253)" stroke="rgb(253,254,253)" stroke-width="1" opacity="1" d="M 104.5 215 L 105.5 217 L 107 216.5 L 107.5 220 L 109 219.5 L 108 221.5 L 109.5 221 L 111 221.5 Q 106.5 224.8 99 224 L 100.5 221 L 101.5 223 Q 105.8 221.2 103 219.5 L 104.5 215 Z " /><path fill="rgb(253,254,253)" stroke="rgb(253,254,253)" stroke-width="1" opacity="1" d="M 113.5 224 L 113.5 227 Q 111.3 227.8 112 225.5 L 113.5 224 Z " /><path fill="rgb(253,254,253)" stroke="rgb(253,254,253)" stroke-width="1" opacity="1" d="M 285.5 225 L 288 229.5 L 287.5 232 L 283.5 229 L 282 229.5 Q 283.2 226.8 284.5 229 L 286.5 230 L 287 228 L 285 227.5 L 285.5 225 Z " /><path fill="rgb(253,254,253)" stroke="rgb(253,254,253)" stroke-width="1" opacity="1" d="M 114.5 230 L 116.5 231 L 118 230.5 L 117 233 Q 112.1 231.4 114 237 Q 117.4 237.8 118.5 235 L 121 236.5 Q 118.8 237.8 121.5 239 L 123 239.5 L 121.5 240 Q 120.3 237.8 119 240.5 L 119 244.5 L 116 250 Q 110 252.3 112 245.5 Q 115.5 244 113 242.5 L 114 238.5 Q 111 237.5 112 232.5 L 114.5 230 Z " /><path fill="rgb(253,254,253)" stroke="rgb(253,254,253)" stroke-width="1" opacity="1" d="M 118 232 L 120 232.5 L 118 233.5 L 118 232 Z " /><path fill="rgb(253,254,253)" stroke="rgb(253,254,253)" stroke-width="1" opacity="1" d="M 278.5 236 Q 281.1 235.2 280 238.5 L 287 241.5 Q 287.8 243.8 285.5 243 L 281.5 245 L 280.5 243 L 279 246.5 L 281 249.5 L 280 249.5 L 278.5 247 L 275 248.5 L 277 249.5 L 275 255 L 271 256.5 Q 271.8 261.3 268.5 262 L 266.5 261 Q 262.2 262.8 265 264.5 L 263 268.5 L 266.5 270 L 269 269 Q 270.5 272.8 267.5 272 L 263.5 271 Q 262.3 273.3 261 270.5 L 262 265 L 258 263.5 L 262 262.5 L 261 259.5 L 262 259.5 L 263.5 263 Q 266.8 261.3 263 259.5 L 263.5 257 L 264.5 260 L 266.5 255 L 270 256 L 270 254 Q 267.3 255.1 268 252.5 Q 271.5 251 269 249.5 L 269.5 248 L 270.5 250 L 271.5 247 L 274.5 248 L 277 247 Q 276 244 279 245 L 279 242.5 L 279 240.5 L 278.5 237 L 277.5 239 L 277 237.5 L 278.5 236 Z " /><path fill="rgb(253,254,253)" stroke="rgb(253,254,253)" stroke-width="1" opacity="1" d="M 275.5 240 L 278 241 L 273.5 247 L 271 245.5 L 273 245 L 273.5 243 Q 274.8 245.3 276 242.5 L 275.5 241 L 274 241.5 L 275.5 240 Z " /><path fill="rgb(253,254,253)" stroke="rgb(253,254,253)" stroke-width="1" opacity="1" d="M 120.5 241 L 124 242.5 L 122.5 245 L 124.5 244 L 125 245.5 L 124 248 L 126.5 249 L 127.5 247 L 130 250.5 Q 127.7 251.8 130.5 253 Q 133.8 251.9 133 254.5 L 137.5 263 L 139 262.5 L 141.5 266 L 143 265.5 L 144 267.5 L 142.5 267 L 136 268 L 136 272 L 128 272 L 128 260.5 L 130 260 L 131 262.5 L 130 269 Q 133.8 270 135 267.5 L 136 263.5 L 133.5 260 L 130 258.5 L 128.5 255 L 125.5 256 L 125.5 254 L 124 254 L 123.5 256 L 118 256 L 118 253 L 120 253 Q 118.9 250.3 121.5 251 Q 123.8 250.3 123 246.5 L 120 245.5 Q 119.3 242.9 122 244 L 122 242 L 120.5 241 Z M 127 252 Q 126 255 129 254 Q 130 251 127 252 Z M 133 257 Q 131 260 134 259 L 133 257 Z M 136 265 L 136 267 L 138 266 L 136 265 Z " /><path fill="rgb(253,254,253)" stroke="rgb(253,254,253)" stroke-width="1" opacity="1" d="M 287.5 248 L 288 256 L 283 256 L 283 254.5 L 284 252 L 287 250.5 L 287.5 248 Z " /><path fill="rgb(253,254,253)" stroke="rgb(253,254,253)" stroke-width="1" opacity="1" d="M 280.5 251 L 281 255.5 L 280 255.5 L 280.5 251 Z " /><path fill="rgb(253,254,253)" stroke="rgb(253,254,253)" stroke-width="1" opacity="1" d="M 271.5 264 L 272 266.5 L 271 266.5 L 271.5 264 Z " /><path fill="rgb(253,254,253)" stroke="rgb(253,254,253)" stroke-width="1" opacity="1" d="M 259.5 266 L 260 268.5 L 260 270.5 Q 260.8 272.8 258.5 272 L 257.5 269 L 256.5 271 L 256 268 L 259.5 266 Z " /><path fill="rgb(253,254,253)" stroke="rgb(253,254,253)" stroke-width="1" opacity="1" d="M 139.5 269 L 141 271.5 L 139 270.5 L 139.5 269 Z " /><path fill="rgb(253,254,253)" stroke="rgb(253,254,253)" stroke-width="1" opacity="1" d="M 142.5 269 L 144.5 272 Q 145.8 269.8 147 272.5 Q 146.3 274.8 148.5 274 L 148.5 275 Q 146.3 274.3 147 276.5 Q 145.5 279.5 144 276.5 L 144.5 275 L 145.5 277 L 147 274.5 L 142 272 L 142.5 269 Z " /><path fill="rgb(253,254,253)" stroke="rgb(253,254,253)" stroke-width="1" opacity="1" d="M 254.5 271 Q 257.3 272.3 255 273.5 L 256 275.5 L 254.5 276 L 252 272.5 L 253.5 273 L 255 272.5 L 254.5 271 Z " /><path fill="rgb(253,254,253)" stroke="rgb(253,254,253)" stroke-width="1" opacity="1" d="M 251.5 274 L 252 276.5 L 250.5 279 Q 247.9 279.7 249 277 L 251 276.5 Q 248.7 275.3 251.5 274 Z " /><path fill="rgb(253,254,253)" stroke="rgb(253,254,253)" stroke-width="1" opacity="1" d="M 151.5 279 L 154 283.5 L 151 281.5 L 151.5 279 Z " /><path fill="rgb(253,254,253)" stroke="rgb(253,254,253)" stroke-width="1" opacity="1" d="M 247.5 280 L 251 280.5 L 250 281.5 L 250 288 L 247 287.5 L 248 284.5 L 246 284.5 L 247 283.5 L 245.5 281 L 248 282.5 L 247.5 280 Z " /><path fill="rgb(253,254,253)" stroke="rgb(253,254,253)" stroke-width="1" opacity="1" d="M 147.5 285 Q 150.8 283.9 150 286.5 Q 152.3 287.8 149.5 289 L 146 287.5 L 147.5 285 Z " /><path fill="rgb(253,254,253)" stroke="rgb(253,254,253)" stroke-width="1" opacity="1" d="M 152.5 286 L 153.5 288 L 152.5 286 Z " /><path fill="rgb(253,254,253)" stroke="rgb(253,254,253)" stroke-width="1" opacity="1" d="M 157 288 L 160 289.5 L 159.5 293 Q 156.3 291.8 157 288 Z " /><path fill="rgb(253,254,253)" stroke="rgb(253,254,253)" stroke-width="1" opacity="1" d="M 239.5 290 L 240 291.5 L 239.5 294 L 237 293.5 L 239.5 290 Z " /><path fill="rgb(253,254,253)" stroke="rgb(253,254,253)" stroke-width="1" opacity="1" d="M 161.5 294 L 166 301 Q 163.3 299.9 164 302.5 L 163 302.5 Q 163.8 300.3 161.5 301 L 161.5 300 L 163.5 301 L 164 299 L 162 298.5 L 162 296.5 L 161.5 294 Z " /><path fill="rgb(253,254,253)" stroke="rgb(253,254,253)" stroke-width="1" opacity="1" d="M 235.5 296 L 238 296.5 L 238.5 299 L 240 298.5 Q 240.5 303.5 236.5 304 L 234 305.5 Q 235.5 312.5 231.5 314 Q 228.2 315.1 229 312.5 L 228 310.5 L 229 310.5 Q 228.3 313.1 231 312 L 232 307.5 L 231 303.5 L 231.5 301 L 234.5 300 L 235.5 303 L 237.5 300 Q 235.3 300.8 236 298.5 L 235.5 296 Z " /><path fill="rgb(253,254,253)" stroke="rgb(253,254,253)" stroke-width="1" opacity="1" d="M 160.5 302 L 162 302.5 L 162 312 L 160 311.5 L 160 304.5 Q 157.8 303.3 160.5 302 Z " /><path fill="rgb(253,254,253)" stroke="rgb(253,254,253)" stroke-width="1" opacity="1" d="M 167.5 302 L 169 307 L 171 307.5 L 167 308 L 167.5 302 Z " /><path fill="rgb(253,254,253)" stroke="rgb(253,254,253)" stroke-width="1" opacity="1" d="M 168 309 Q 171.7 307.5 171 310.5 Q 168.5 312 172 313.5 Q 173 317.3 170 316 L 168 309 Z " /><path fill="rgb(253,254,253)" stroke="rgb(253,254,253)" stroke-width="1" opacity="1" d="M 172.5 311 L 175 312 L 176 317.5 L 174 316.5 L 172.5 311 Z " /><path fill="rgb(253,254,253)" stroke="rgb(253,254,253)" stroke-width="1" opacity="1" d="M 223.5 312 L 224 314.5 L 223 316.5 L 223 318.5 L 224 322.5 L 222.5 327 Q 219.8 325.8 222 324.5 Q 223 320.8 220 322 L 220 327.5 Q 216.5 326.7 218 333 L 214.5 333 L 215.5 336 L 213 335 L 212.5 333 L 212 336 Q 207.9 337.3 209 334 Q 211.7 335.1 211 332.5 L 210.5 331 Q 211.7 333.2 213 330.5 L 214.5 328 Q 217.1 328.8 216 325.5 L 218 321.5 L 218.5 320 Q 219.8 322.3 221 319.5 L 219 318.5 L 223 317.5 Q 219 315.5 223 313.5 L 223.5 312 Z M 218 325 L 217 328 L 218 328 L 218 325 Z M 215 330 L 213 332 L 214 333 L 216 332 L 215 330 Z " /><path fill="rgb(253,254,253)" stroke="rgb(253,254,253)" stroke-width="1" opacity="1" d="M 163 315 Q 166.8 314 168 316.5 L 169 318.5 Q 168.5 321.5 164.5 321 Q 161.8 319.6 163 315 Z " /><path fill="rgb(253,254,253)" stroke="rgb(253,254,253)" stroke-width="1" opacity="1" d="M 177.5 320 L 182 321.5 L 182 323.5 L 181.5 325 L 180.5 323 Q 177.3 324.2 178 328 L 180.5 327 L 180.5 329 Q 183.1 329.8 182 326.5 L 183 326.5 L 184 328.5 L 182 329 L 182 333 L 179 333 Q 180.5 337.5 176 336 L 178 332.5 L 178 329.5 L 175 324.5 L 177.5 320 Z " /><path fill="rgb(253,254,253)" stroke="rgb(253,254,253)" stroke-width="1" opacity="1" d="M 186.5 329 L 188 331.5 L 186.5 331 L 184 330.5 L 186.5 329 Z " /><path fill="rgb(253,254,253)" stroke="rgb(253,254,253)" stroke-width="1" opacity="1" d="M 182 334 Q 185 333 184 336 Q 181 337 182 334 Z " /><path fill="rgb(253,254,253)" stroke="rgb(253,254,253)" stroke-width="1" opacity="1" d="M 207.5 335 L 208 336.5 L 205.5 338 L 205.5 337 Q 208 337.7 207.5 335 Z " /><path fill="rgb(253,254,253)" stroke="rgb(253,254,253)" stroke-width="1" opacity="1" d="M 207.5 339 L 208 341.5 L 207 341.5 L 207.5 339 Z " /><path fill="rgb(253,254,253)" stroke="rgb(253,254,253)" stroke-width="1" opacity="1" d="M 202 342 Q 204.7 340.9 204 343.5 L 205.5 343 L 208 343 L 208 349.5 L 207 352 L 201 352 L 201 349.5 L 199 350.5 Q 199.7 353.1 197 352 L 196.5 349 L 195.5 352 Q 190.7 353.7 192 349.5 L 193 347.5 L 192 345 Q 196.5 344.2 198.5 347 L 198.5 345 L 200 348 L 204 347 L 204 344 Q 201 345 202 342 Z M 205 348 L 203 350 Q 202 352 205 351 L 205 348 Z " /><path fill="rgb(253,254,253)" stroke="rgb(253,254,253)" stroke-width="1" opacity="1" d="M 196.5 343 L 199 343.5 L 196.5 344 L 196.5 343 Z " /><path fill="rgb(243,248,251)" stroke="rgb(243,248,251)" stroke-width="1" opacity="1" d="M 199.5 49 L 198.5 51 L 199.5 49 Z " /><path fill="rgb(243,248,251)" stroke="rgb(243,248,251)" stroke-width="1" opacity="1" d="M 201.5 50 L 204 50.5 L 201.5 51 L 201.5 50 Z " /><path fill="rgb(243,248,251)" stroke="rgb(243,248,251)" stroke-width="1" opacity="1" d="M 195.5 52 L 198 53.5 L 196.5 53 L 194.5 54 L 195.5 52 Z " /><path fill="rgb(243,248,251)" stroke="rgb(243,248,251)" stroke-width="1" opacity="1" d="M 203.5 52 L 204.5 54 L 202 53.5 L 203.5 52 Z " /><path fill="rgb(243,248,251)" stroke="rgb(243,248,251)" stroke-width="1" opacity="1" d="M 204.5 57 L 207 60.5 L 205 59.5 L 204.5 57 Z " /><path fill="rgb(243,248,251)" stroke="rgb(243,248,251)" stroke-width="1" opacity="1" d="M 194.5 58 L 193.5 60 L 194.5 58 Z " /><path fill="rgb(243,248,251)" stroke="rgb(243,248,251)" stroke-width="1" opacity="1" d="M 190.5 64 L 191 66 Q 187.2 64.5 188 67.5 L 190 67.5 Q 188.5 70.5 187 67.5 L 188.5 65 L 190.5 64 Z " /><path fill="rgb(243,248,251)" stroke="rgb(243,248,251)" stroke-width="1" opacity="1" d="M 208.5 64 L 209.5 66 L 208.5 64 Z " /><path fill="rgb(243,248,251)" stroke="rgb(243,248,251)" stroke-width="1" opacity="1" d="M 211.5 64 L 215 65.5 L 212.5 66 L 211.5 64 Z " /><path fill="rgb(243,248,251)" stroke="rgb(243,248,251)" stroke-width="1" opacity="1" d="M 211.5 69 L 215 71.5 L 214.5 74 L 213.5 71 L 211.5 69 Z " /><path fill="rgb(243,248,251)" stroke="rgb(243,248,251)" stroke-width="1" opacity="1" d="M 185.5 70 L 188 70.5 L 185.5 74 L 184 73.5 L 185.5 70 Z " /><path fill="rgb(243,248,251)" stroke="rgb(243,248,251)" stroke-width="1" opacity="1" d="M 179.5 75 L 181 75.5 L 177.5 77 L 177.5 76 L 179.5 75 Z " /><path fill="rgb(243,248,251)" stroke="rgb(243,248,251)" stroke-width="1" opacity="1" d="M 183 75 L 185 75.5 L 180.5 82 L 179.5 80 L 181 79.5 L 180.5 78 L 182 78.5 L 183 75 Z " /><path fill="rgb(243,248,251)" stroke="rgb(243,248,251)" stroke-width="1" opacity="1" d="M 216.5 77 L 219 80.5 L 217 79.5 L 216.5 77 Z " /><path fill="rgb(243,248,251)" stroke="rgb(243,248,251)" stroke-width="1" opacity="1" d="M 177.5 82 L 180 83.5 L 178.5 83 L 176.5 84 L 177.5 82 Z " /><path fill="rgb(243,248,251)" stroke="rgb(243,248,251)" stroke-width="1" opacity="1" d="M 219.5 82 L 222 83.5 L 221.5 85 Q 223.8 84.3 223 86.5 L 228 95.5 L 226 94.5 L 219.5 82 Z " /><path fill="rgb(243,248,251)" stroke="rgb(243,248,251)" stroke-width="1" opacity="1" d="M 177 85 L 179 85.5 L 177 89 L 175 89.5 Q 177.3 90.8 174.5 92 L 173 91.5 L 177 85 Z " /><path fill="rgb(243,248,251)" stroke="rgb(243,248,251)" stroke-width="1" opacity="1" d="M 172 93 L 174 93.5 L 171.5 97 L 170.5 95 L 172 95.5 L 172 93 Z " /><path fill="rgb(243,248,251)" stroke="rgb(243,248,251)" stroke-width="1" opacity="1" d="M 229.5 96 L 230.5 98 L 228 97.5 L 229.5 96 Z " /><path fill="rgb(243,248,251)" stroke="rgb(243,248,251)" stroke-width="1" opacity="1" d="M 168.5 98 L 171 98.5 L 168.5 99 L 168.5 98 Z " /><path fill="rgb(243,248,251)" stroke="rgb(243,248,251)" stroke-width="1" opacity="1" d="M 229.5 99 L 230.5 101 L 229.5 99 Z " /><path fill="rgb(243,248,251)" stroke="rgb(243,248,251)" stroke-width="1" opacity="1" d="M 169.5 100 L 168.5 102 L 169.5 100 Z " /><path fill="rgb(243,248,251)" stroke="rgb(243,248,251)" stroke-width="1" opacity="1" d="M 167.5 103 L 167 104.5 L 164 111 L 162 110.5 Q 165.8 108.8 162.5 107 L 161 107.5 Q 163.3 108.8 160.5 110 L 160 107.5 L 161.5 106 L 164.5 107 L 164.5 105 L 167.5 103 Z " /><path fill="rgb(243,248,251)" stroke="rgb(243,248,251)" stroke-width="1" opacity="1" d="M 234.5 104 L 233.5 106 L 234.5 104 Z " /><path fill="rgb(243,248,251)" stroke="rgb(243,248,251)" stroke-width="1" opacity="1" d="M 234.5 107 L 237 107.5 L 238 109.5 Q 236.5 112.5 235 109.5 L 234.5 107 Z " /><path fill="rgb(243,248,251)" stroke="rgb(243,248,251)" stroke-width="1" opacity="1" d="M 238.5 111 L 238.5 114 Q 235.5 112.5 238.5 111 Z " /><path fill="rgb(243,248,251)" stroke="rgb(243,248,251)" stroke-width="1" opacity="1" d="M 160 113 L 162 113.5 L 161 116 Q 158 114.8 159 118.5 L 156.5 122 L 156 120.5 L 156.5 118 L 158 118.5 L 160 113 Z " /><path fill="rgb(243,248,251)" stroke="rgb(243,248,251)" stroke-width="1" opacity="1" d="M 153.5 115 L 154.5 117 L 153.5 115 Z " /><path fill="rgb(243,248,251)" stroke="rgb(243,248,251)" stroke-width="1" opacity="1" d="M 240.5 117 L 243 120.5 L 242 120.5 L 240.5 117 Z " /><path fill="rgb(243,248,251)" stroke="rgb(243,248,251)" stroke-width="1" opacity="1" d="M 152.5 121 L 156 123.5 L 154 124.5 L 154.5 126 L 152.5 121 Z " /><path fill="rgb(243,248,251)" stroke="rgb(243,248,251)" stroke-width="1" opacity="1" d="M 244.5 121 L 248 128.5 L 246 127.5 L 245 125.5 L 245.5 124 L 243 122.5 L 244.5 121 Z " /><path fill="rgb(243,248,251)" stroke="rgb(243,248,251)" stroke-width="1" opacity="1" d="M 144.5 129 L 147.5 130 L 149 130.5 L 146.5 132 L 144.5 129 Z " /><path fill="rgb(243,248,251)" stroke="rgb(243,248,251)" stroke-width="1" opacity="1" d="M 150 130 L 152 130.5 L 146.5 139 L 145.5 137 L 144 137.5 L 145.5 135 L 146.5 137 Q 149.3 135.8 147 134.5 L 148.5 132 Q 151.1 132.7 150 130 Z " /><path fill="rgb(243,248,251)" stroke="rgb(243,248,251)" stroke-width="1" opacity="1" d="M 248.5 130 L 252 135.5 L 251 135.5 L 248.5 130 Z " /><path fill="rgb(243,248,251)" stroke="rgb(243,248,251)" stroke-width="1" opacity="1" d="M 252.5 137 L 253.5 139 L 252.5 137 Z " /><path fill="rgb(243,248,251)" stroke="rgb(243,248,251)" stroke-width="1" opacity="1" d="M 144.5 139 Q 147.5 140.5 144.5 142 L 144.5 139 Z " /><path fill="rgb(243,248,251)" stroke="rgb(243,248,251)" stroke-width="1" opacity="1" d="M 142.5 144 L 143 145.5 L 140 147.5 L 140 149.5 L 136.5 155 L 135.5 153 L 137 153.5 L 138 150.5 L 136 150.5 L 137.5 148 L 138.5 150 Q 141.3 148.8 139 147.5 L 142.5 144 Z " /><path fill="rgb(243,248,251)" stroke="rgb(243,248,251)" stroke-width="1" opacity="1" d="M 258.5 144 L 257.5 146 L 258.5 144 Z " /><path fill="rgb(243,248,251)" stroke="rgb(243,248,251)" stroke-width="1" opacity="1" d="M 260.5 146 L 261 147.5 Q 259.5 150.5 258 147.5 L 260 147.5 L 260.5 146 Z " /><path fill="rgb(243,248,251)" stroke="rgb(243,248,251)" stroke-width="1" opacity="1" d="M 261.5 149 L 262 151 L 260 150.5 L 261.5 149 Z " /><path fill="rgb(243,248,251)" stroke="rgb(243,248,251)" stroke-width="1" opacity="1" d="M 261.5 152 L 262.5 154 L 261.5 152 Z " /><path fill="rgb(243,248,251)" stroke="rgb(243,248,251)" stroke-width="1" opacity="1" d="M 129 153 L 131 153.5 L 128 155.5 L 129 153 Z " /><path fill="rgb(243,248,251)" stroke="rgb(243,248,251)" stroke-width="1" opacity="1" d="M 134.5 155 L 135.5 157 Q 134.3 154.8 133 157.5 L 133.5 159 L 135 158.5 L 127.5 171 L 126.5 169 Q 128.8 169.8 128 167.5 L 133 159.5 L 132 157.5 L 134.5 155 Z " /><path fill="rgb(243,248,251)" stroke="rgb(243,248,251)" stroke-width="1" opacity="1" d="M 263.5 155 L 267 159.5 L 264 157.5 L 263.5 155 Z " /><path fill="rgb(243,248,251)" stroke="rgb(243,248,251)" stroke-width="1" opacity="1" d="M 268.5 161 L 267.5 163 L 268.5 161 Z " /><path fill="rgb(243,248,251)" stroke="rgb(243,248,251)" stroke-width="1" opacity="1" d="M 129.5 162 L 128.5 164 L 129.5 162 Z " /><path fill="rgb(243,248,251)" stroke="rgb(243,248,251)" stroke-width="1" opacity="1" d="M 270.5 164 L 271 166.5 L 272 168.5 L 270 167.5 L 269 165.5 L 270.5 164 Z " /><path fill="rgb(243,248,251)" stroke="rgb(243,248,251)" stroke-width="1" opacity="1" d="M 124.5 168 L 123.5 170 L 124.5 168 Z " /><path fill="rgb(243,248,251)" stroke="rgb(243,248,251)" stroke-width="1" opacity="1" d="M 120.5 170 L 123 171.5 L 122 173.5 L 126 171.5 L 123 179 L 120 178.5 L 122 177.5 L 120 174.5 L 122 171.5 L 120.5 170 Z " /><path fill="rgb(243,248,251)" stroke="rgb(243,248,251)" stroke-width="1" opacity="1" d="M 272.5 170 L 273.5 172 L 272.5 170 Z " /><path fill="rgb(243,248,251)" stroke="rgb(243,248,251)" stroke-width="1" opacity="1" d="M 277.5 170 L 276.5 172 L 277.5 170 Z " /><path fill="rgb(243,248,251)" stroke="rgb(243,248,251)" stroke-width="1" opacity="1" d="M 274.5 173 L 276.5 176 L 278.5 173 L 279 174.5 L 277 177.5 L 277.5 179 L 274.5 173 Z " /><path fill="rgb(243,248,251)" stroke="rgb(243,248,251)" stroke-width="1" opacity="1" d="M 120 180 L 122 180.5 L 117 189 L 113.5 187 L 112 187.5 L 113.5 186 L 116 187.5 L 120 180 Z " /><path fill="rgb(243,248,251)" stroke="rgb(243,248,251)" stroke-width="1" opacity="1" d="M 278.5 180 L 280 182.5 L 279 182.5 L 278.5 180 Z " /><path fill="rgb(243,248,251)" stroke="rgb(243,248,251)" stroke-width="1" opacity="1" d="M 285.5 185 L 286 186.5 Q 284 191 282 187.5 L 285 186.5 L 285.5 185 Z " /><path fill="rgb(243,248,251)" stroke="rgb(243,248,251)" stroke-width="1" opacity="1" d="M 113.5 189 L 116 190.5 L 112.5 195 L 111 194.5 L 112.5 191 L 114 191.5 L 113.5 189 Z " /><path fill="rgb(243,248,251)" stroke="rgb(243,248,251)" stroke-width="1" opacity="1" d="M 287.5 195 L 291 201 L 293 201.5 L 291.5 202 L 287.5 195 Z " /><path fill="rgb(243,248,251)" stroke="rgb(243,248,251)" stroke-width="1" opacity="1" d="M 110.5 196 L 112 196.5 L 110 197.5 L 110 199.5 L 105.5 207 L 105 205.5 L 108 197 L 110.5 196 Z " /><path fill="rgb(243,248,251)" stroke="rgb(243,248,251)" stroke-width="1" opacity="1" d="M 294.5 204 L 293.5 206 L 294.5 204 Z " /><path fill="rgb(243,248,251)" stroke="rgb(243,248,251)" stroke-width="1" opacity="1" d="M 104.5 208 L 103.5 210 L 104.5 208 Z " /><path fill="rgb(243,248,251)" stroke="rgb(243,248,251)" stroke-width="1" opacity="1" d="M 104.5 211 L 105.5 213 L 104.5 211 Z " /><path fill="rgb(243,248,251)" stroke="rgb(243,248,251)" stroke-width="1" opacity="1" d="M 295.5 211 L 294 213.5 L 295 215.5 L 292 216.5 L 288.5 221 L 291 217.5 L 295.5 211 Z " /><path fill="rgb(243,248,251)" stroke="rgb(243,248,251)" stroke-width="1" opacity="1" d="M 105.5 214 L 109 216.5 L 111 219.5 L 109 220.5 L 109.5 219 Q 107.3 219.8 108 217.5 L 107 215 L 105.5 214 Z " /><path fill="rgb(243,248,251)" stroke="rgb(243,248,251)" stroke-width="1" opacity="1" d="M 111.5 221 Q 114.5 222.5 111.5 224 Q 108.5 222.5 111.5 221 Z " /><path fill="rgb(243,248,251)" stroke="rgb(243,248,251)" stroke-width="1" opacity="1" d="M 287.5 222 L 286.5 224 L 287.5 222 Z " /><path fill="rgb(243,248,251)" stroke="rgb(243,248,251)" stroke-width="1" opacity="1" d="M 114.5 225 L 118 229.5 Q 116.8 232.3 115.5 230 L 113.5 231 L 114 229.5 L 113 227.5 L 114.5 225 Z " /><path fill="rgb(243,248,251)" stroke="rgb(243,248,251)" stroke-width="1" opacity="1" d="M 284.5 226 L 283.5 228 L 284.5 226 Z " /><path fill="rgb(243,248,251)" stroke="rgb(243,248,251)" stroke-width="1" opacity="1" d="M 283.5 229 L 285.5 232 L 283.5 229 Z " /><path fill="rgb(243,248,251)" stroke="rgb(243,248,251)" stroke-width="1" opacity="1" d="M 120.5 233 L 124 237.5 Q 122.5 240.5 121 237.5 Q 123.5 236 120 234.5 L 120.5 233 Z " /><path fill="rgb(243,248,251)" stroke="rgb(243,248,251)" stroke-width="1" opacity="1" d="M 279.5 233 L 279 234.5 L 271.5 245 L 273 242.5 L 279.5 233 Z " /><path fill="rgb(243,248,251)" stroke="rgb(243,248,251)" stroke-width="1" opacity="1" d="M 124.5 239 L 128 243.5 L 126 243.5 L 127 246.5 L 125 247.5 L 126 245.5 L 124.5 240 L 123.5 242 L 123 240.5 L 124.5 239 Z " /><path fill="rgb(243,248,251)" stroke="rgb(243,248,251)" stroke-width="1" opacity="1" d="M 128.5 245 L 143 264.5 L 140 264.5 L 140.5 263 L 138.5 262 Q 137.3 264.3 136 261.5 L 138 261.5 L 135.5 256 L 133 254.5 Q 134.1 251.2 131.5 252 L 130 252.5 L 130 248.5 Q 130.7 245.9 128 247 L 128.5 245 Z " /><path fill="rgb(243,248,251)" stroke="rgb(243,248,251)" stroke-width="1" opacity="1" d="M 270.5 246 L 269 248.5 L 264.5 256 L 264 254.5 L 270.5 246 Z " /><path fill="rgb(243,248,251)" stroke="rgb(243,248,251)" stroke-width="1" opacity="1" d="M 262.5 257 L 263 259.5 L 262.5 261 L 261 258.5 L 262.5 257 Z " /><path fill="rgb(243,248,251)" stroke="rgb(243,248,251)" stroke-width="1" opacity="1" d="M 260.5 260 L 259.5 262 L 260.5 260 Z " /><path fill="rgb(243,248,251)" stroke="rgb(243,248,251)" stroke-width="1" opacity="1" d="M 257.5 264 L 258 266 L 256 265.5 L 257.5 264 Z " /><path fill="rgb(243,248,251)" stroke="rgb(243,248,251)" stroke-width="1" opacity="1" d="M 143.5 266 L 148 271.5 L 145.5 270 L 144 269.5 Q 146.3 268.3 143.5 267 L 142.5 269 L 141.5 267 L 143.5 266 Z " /><path fill="rgb(243,248,251)" stroke="rgb(243,248,251)" stroke-width="1" opacity="1" d="M 255.5 267 L 254.5 269 L 255.5 267 Z " /><path fill="rgb(243,248,251)" stroke="rgb(243,248,251)" stroke-width="1" opacity="1" d="M 253.5 270 L 252 272.5 L 247.5 279 L 249 276.5 L 253.5 270 Z " /><path fill="rgb(243,248,251)" stroke="rgb(243,248,251)" stroke-width="1" opacity="1" d="M 255.5 270 L 256.5 272 L 255.5 270 Z " /><path fill="rgb(243,248,251)" stroke="rgb(243,248,251)" stroke-width="1" opacity="1" d="M 147.5 273 L 150 274.5 Q 148.9 277.8 151.5 277 L 151.5 278 L 150 278.5 L 150.5 280 L 147 278.5 L 149 274 L 147.5 273 Z " /><path fill="rgb(243,248,251)" stroke="rgb(243,248,251)" stroke-width="1" opacity="1" d="M 153.5 280 L 160 288.5 L 156 287.5 L 157 285.5 L 154 284.5 Q 156.5 283 153 281.5 L 153.5 280 Z " /><path fill="rgb(243,248,251)" stroke="rgb(243,248,251)" stroke-width="1" opacity="1" d="M 244.5 282 L 246 284.5 Q 244 289 242 285.5 L 245 284.5 L 244.5 282 Z " /><path fill="rgb(243,248,251)" stroke="rgb(243,248,251)" stroke-width="1" opacity="1" d="M 160.5 290 Q 164.2 292 162.5 294 L 165 295.5 L 163.5 295 L 160 293.5 L 160 291.5 L 160.5 290 Z " /><path fill="rgb(243,248,251)" stroke="rgb(243,248,251)" stroke-width="1" opacity="1" d="M 238.5 291 L 237.5 293 L 238.5 291 Z " /><path fill="rgb(243,248,251)" stroke="rgb(243,248,251)" stroke-width="1" opacity="1" d="M 236.5 294 L 238.5 295 L 240 294.5 Q 238.8 297.2 237.5 295 L 235 296.5 L 232.5 300 L 234 297.5 L 236.5 294 Z " /><path fill="rgb(243,248,251)" stroke="rgb(243,248,251)" stroke-width="1" opacity="1" d="M 165.5 297 L 166.5 299 L 165.5 297 Z " /><path fill="rgb(243,248,251)" stroke="rgb(243,248,251)" stroke-width="1" opacity="1" d="M 168.5 301 L 170 305 L 173 306.5 L 180 316.5 L 176 313.5 L 174.5 311 L 173 311.5 Q 175.3 310.3 172.5 309 L 171 308.5 Q 173.3 307.3 170.5 306 L 169 306.5 L 169 304.5 L 168.5 301 Z " /><path fill="rgb(243,248,251)" stroke="rgb(243,248,251)" stroke-width="1" opacity="1" d="M 230.5 302 L 229.5 304 L 230.5 302 Z " /><path fill="rgb(243,248,251)" stroke="rgb(243,248,251)" stroke-width="1" opacity="1" d="M 228.5 305 Q 230.8 304.3 230 306.5 L 231 308.5 L 230 310.5 L 230.5 312 L 226.5 309 L 225.5 312 Q 222.3 310.3 226 308.5 L 228.5 305 Z M 229 306 L 228 308 L 230 309 L 229 306 Z " /><path fill="rgb(243,248,251)" stroke="rgb(243,248,251)" stroke-width="1" opacity="1" d="M 177.5 317 L 178.5 319 L 180.5 318 L 192 333.5 L 193 337 Q 195.7 335.9 195 338.5 L 196.5 341 L 192 338.5 L 192 336.5 Q 192.8 333.9 189.5 335 Q 187.8 331.9 186 333.5 L 186.5 332 L 184.5 333 L 185.5 331 L 188 329.5 L 186.5 328 L 184 329.5 L 184 325.5 L 181.5 320 L 180 320.5 L 180.5 319 L 178.5 320 L 176 319.5 L 177.5 317 Z M 188 331 L 189 333 Q 190 330 188 331 Z " /><path fill="rgb(243,248,251)" stroke="rgb(243,248,251)" stroke-width="1" opacity="1" d="M 218.5 319 L 218 320.5 L 210.5 331 L 212 328.5 L 218.5 319 Z " /><path fill="rgb(243,248,251)" stroke="rgb(243,248,251)" stroke-width="1" opacity="1" d="M 209.5 332 L 207.5 335 L 209.5 332 Z " /><path fill="rgb(243,248,251)" stroke="rgb(243,248,251)" stroke-width="1" opacity="1" d="M 184.5 334 L 185.5 336 L 184.5 334 Z " /><path fill="rgb(243,248,251)" stroke="rgb(243,248,251)" stroke-width="1" opacity="1" d="M 205.5 338 L 207 340.5 L 206.5 343 L 204 342.5 L 205.5 340 L 203.5 341 L 205.5 338 Z " /><path fill="rgb(243,248,251)" stroke="rgb(243,248,251)" stroke-width="1" opacity="1" d="M 194.5 341 L 194.5 344 Q 191.5 342.5 194.5 341 Z " /><path fill="rgb(243,248,251)" stroke="rgb(243,248,251)" stroke-width="1" opacity="1" d="M 201.5 343 L 202 344.5 L 199.5 346 L 198.5 344 L 201.5 343 Z " /><path fill="rgb(255,254,255)" stroke="rgb(255,254,255)" stroke-width="1" opacity="1" d="M 206.5 47 L 209 48.5 L 208 53 L 205 52.5 L 207 52 L 206.5 50 L 205 50.5 L 206.5 47 Z " /><path fill="rgb(255,254,255)" stroke="rgb(255,254,255)" stroke-width="1" opacity="1" d="M 192 48 L 197 48 L 197 49.5 L 193.5 51 L 192 48 Z M 194 49 L 194 50 L 196 50 L 194 49 Z " /><path fill="rgb(255,254,255)" stroke="rgb(255,254,255)" stroke-width="1" opacity="1" d="M 203.5 53 L 204.5 55 Q 201.7 55.7 203.5 53 Z " /><path fill="rgb(255,254,255)" stroke="rgb(255,254,255)" stroke-width="1" opacity="1" d="M 216 64 Q 222 62 220 68 L 216 65.5 L 216 64 Z " /><path fill="rgb(255,254,255)" stroke="rgb(255,254,255)" stroke-width="1" opacity="1" d="M 178.5 66 L 180 69.5 L 176 71 Q 175 68 178 69 L 178.5 66 Z " /><path fill="rgb(255,254,255)" stroke="rgb(255,254,255)" stroke-width="1" opacity="1" d="M 160.5 80 Q 164.3 78.8 163 82.5 Q 161 86 159 81.5 L 160.5 80 Z " /><path fill="rgb(255,254,255)" stroke="rgb(255,254,255)" stroke-width="1" opacity="1" d="M 171.5 82 L 174 82.5 L 171.5 83 L 171.5 82 Z " /><path fill="rgb(255,254,255)" stroke="rgb(255,254,255)" stroke-width="1" opacity="1" d="M 165 86 L 169 86.5 L 166 95 Q 161.5 96.8 163 91.5 L 165 86 Z " /><path fill="rgb(255,254,255)" stroke="rgb(255,254,255)" stroke-width="1" opacity="1" d="M 238 88 L 240 88.5 L 240 95.5 L 239 95.5 L 238 88 Z " /><path fill="rgb(255,254,255)" stroke="rgb(255,254,255)" stroke-width="1" opacity="1" d="M 160 96 Q 163 95 162 98 Q 159 99 160 96 Z " /><path fill="rgb(255,254,255)" stroke="rgb(255,254,255)" stroke-width="1" opacity="1" d="M 167 96 Q 171.1 94.7 170 98 Q 165.9 99.3 167 96 Z " /><path fill="rgb(255,254,255)" stroke="rgb(255,254,255)" stroke-width="1" opacity="1" d="M 163 100 Q 167.9 98.2 166 104.5 L 163 102.5 L 163 100 Z " /><path fill="rgb(255,254,255)" stroke="rgb(255,254,255)" stroke-width="1" opacity="1" d="M 154 111 L 158 112.5 L 157.5 115 L 156 114.5 Q 156.8 116.8 154.5 116 L 153 113.5 L 154 111 Z " /><path fill="rgb(255,254,255)" stroke="rgb(255,254,255)" stroke-width="1" opacity="1" d="M 252.5 112 L 256 112 L 256 117 L 252 116 L 251 113.5 L 252.5 112 Z " /><path fill="rgb(255,254,255)" stroke="rgb(255,254,255)" stroke-width="1" opacity="1" d="M 151.5 117 L 153 120.5 L 152.5 123 L 149 121.5 L 151.5 117 Z " /><path fill="rgb(255,254,255)" stroke="rgb(255,254,255)" stroke-width="1" opacity="1" d="M 247 125 Q 251.1 123.7 250 127 Q 245.9 128.3 247 125 Z " /><path fill="rgb(255,254,255)" stroke="rgb(255,254,255)" stroke-width="1" opacity="1" d="M 253 128 L 257 129.5 L 255 129.5 L 256 131.5 L 253 129.5 L 253 128 Z " /><path fill="rgb(255,254,255)" stroke="rgb(255,254,255)" stroke-width="1" opacity="1" d="M 144 131 Q 146.7 129.9 146 132.5 L 144 133.5 L 144 131 Z " /><path fill="rgb(255,254,255)" stroke="rgb(255,254,255)" stroke-width="1" opacity="1" d="M 266.5 143 Q 270.8 144.8 268 146.5 Q 268.8 149.1 265.5 148 L 264 144 L 266.5 143 Z " /><path fill="rgb(255,254,255)" stroke="rgb(255,254,255)" stroke-width="1" opacity="1" d="M 138.5 144 Q 142 146 137.5 148 L 137.5 146 L 136 145.5 L 138.5 144 Z " /><path fill="rgb(255,254,255)" stroke="rgb(255,254,255)" stroke-width="1" opacity="1" d="M 271.5 152 L 272 154.5 L 270.5 157 L 270 155.5 L 271.5 152 Z " /><path fill="rgb(255,254,255)" stroke="rgb(255,254,255)" stroke-width="1" opacity="1" d="M 112 160 Q 116.1 158.3 115 162.5 L 112 164 L 112 160 Z " /><path fill="rgb(255,254,255)" stroke="rgb(255,254,255)" stroke-width="1" opacity="1" d="M 272 160 Q 278.1 158.3 280 161.5 L 274.5 163 L 272 162 L 272 160 Z " /><path fill="rgb(255,254,255)" stroke="rgb(255,254,255)" stroke-width="1" opacity="1" d="M 123.5 162 L 127 162.5 L 122.5 164 L 123.5 162 Z " /><path fill="rgb(255,254,255)" stroke="rgb(255,254,255)" stroke-width="1" opacity="1" d="M 117.5 165 L 121 166.5 L 118 172.5 L 118 176 L 120 176.5 L 115.5 183 Q 112.9 182.2 114 185.5 L 111 187 L 112.5 183 Q 115.1 183.8 114 180.5 L 117 176.5 Q 113.5 175 116 173.5 L 117 168.5 L 116 166.5 L 117.5 165 Z " /><path fill="rgb(255,254,255)" stroke="rgb(255,254,255)" stroke-width="1" opacity="1" d="M 286.5 168 L 288 169.5 L 288 177 Q 285 178.3 286 174.5 L 285 170.5 L 286.5 168 Z " /><path fill="rgb(255,254,255)" stroke="rgb(255,254,255)" stroke-width="1" opacity="1" d="M 106 191 L 110 192.5 L 106.5 195 Q 103.8 193.8 106 192.5 L 106 191 Z " /><path fill="rgb(255,254,255)" stroke="rgb(255,254,255)" stroke-width="1" opacity="1" d="M 96 192 Q 99 190.8 98 194.5 L 98.5 196 L 96 192 Z " /><path fill="rgb(255,254,255)" stroke="rgb(255,254,255)" stroke-width="1" opacity="1" d="M 103.5 197 L 105 200.5 L 103.5 204 L 101 202.5 Q 100.3 197.8 103.5 197 Z " /><path fill="rgb(255,254,255)" stroke="rgb(255,254,255)" stroke-width="1" opacity="1" d="M 96 203 Q 98.7 201.9 98 204.5 L 96 205.5 L 96 203 Z " /><path fill="rgb(255,254,255)" stroke="rgb(255,254,255)" stroke-width="1" opacity="1" d="M 96.5 207 Q 99.8 205.9 99 208.5 L 98 212 L 95 210.5 L 96.5 207 Z " /><path fill="rgb(255,254,255)" stroke="rgb(255,254,255)" stroke-width="1" opacity="1" d="M 101.5 213 L 105 214.5 L 101.5 221 L 99 222.5 L 97.5 225 L 95 223.5 L 96.5 221 L 99 221 L 99 215.5 L 101.5 213 Z " /><path fill="rgb(255,254,255)" stroke="rgb(255,254,255)" stroke-width="1" opacity="1" d="M 302.5 214 L 304 214 L 304 218 L 301 216.5 L 302.5 214 Z " /><path fill="rgb(255,254,255)" stroke="rgb(255,254,255)" stroke-width="1" opacity="1" d="M 295 220 L 299 220 L 299 221.5 Q 301.3 222.8 298.5 224 Q 291.6 226 293 222 Q 296 223 295 220 Z " /><path fill="rgb(255,254,255)" stroke="rgb(255,254,255)" stroke-width="1" opacity="1" d="M 117.5 231 L 119 234.5 Q 117.8 237.8 114 237 L 114 233 Q 117.8 234.3 117.5 231 Z " /><path fill="rgb(255,254,255)" stroke="rgb(255,254,255)" stroke-width="1" opacity="1" d="M 112.5 237 L 114 241 L 111 239.5 L 112.5 237 Z " /><path fill="rgb(255,254,255)" stroke="rgb(255,254,255)" stroke-width="1" opacity="1" d="M 275.5 241 L 276 242.5 L 274 243.5 L 275.5 241 Z " /><path fill="rgb(255,254,255)" stroke="rgb(255,254,255)" stroke-width="1" opacity="1" d="M 119.5 244 L 120.5 246 Q 121.8 243.8 123 246.5 Q 123.8 250.3 121.5 251 Q 117.5 251.5 117 248.5 Q 116.5 244.5 119.5 244 Z " /><path fill="rgb(255,254,255)" stroke="rgb(255,254,255)" stroke-width="1" opacity="1" d="M 127 252 Q 129.7 250.9 129 253.5 L 130 256.5 L 131.5 260 L 135 261.5 L 136 264.5 L 133.5 269 Q 127.4 270.8 130 263.5 L 130 261.5 L 128 258.5 L 127 256.5 L 128.5 254 Q 125.9 254.7 127 252 Z " /><path fill="rgb(255,254,255)" stroke="rgb(255,254,255)" stroke-width="1" opacity="1" d="M 112 254 Q 115 253 114 256 Q 111 257 112 254 Z " /><path fill="rgb(255,254,255)" stroke="rgb(255,254,255)" stroke-width="1" opacity="1" d="M 136 269 L 140 271.5 L 138 272 L 137.5 270 L 136.5 272 L 136 269 Z " /><path fill="rgb(255,254,255)" stroke="rgb(255,254,255)" stroke-width="1" opacity="1" d="M 263.5 271 L 266 271.5 L 263.5 272 L 263.5 271 Z " /><path fill="rgb(255,254,255)" stroke="rgb(255,254,255)" stroke-width="1" opacity="1" d="M 252.5 273 L 256 277.5 L 256 282 Q 253.3 283.1 254 280.5 L 253.5 279 L 255 278.5 L 252 277.5 L 253 275.5 L 251 275.5 L 252.5 273 Z " /><path fill="rgb(255,254,255)" stroke="rgb(255,254,255)" stroke-width="1" opacity="1" d="M 145.5 276 L 148 277.5 L 147 280 Q 151.9 278.4 150 284 L 146 282.5 Q 146.8 278.3 144 277.5 L 145.5 276 Z " /><path fill="rgb(255,254,255)" stroke="rgb(255,254,255)" stroke-width="1" opacity="1" d="M 144.5 285 L 146 285 L 146 289 L 143 287.5 L 144.5 285 Z " /><path fill="rgb(255,254,255)" stroke="rgb(255,254,255)" stroke-width="1" opacity="1" d="M 152.5 285 L 156 286.5 L 155 289 Q 151.2 290.5 152 287.5 L 152.5 285 Z " /><path fill="rgb(255,254,255)" stroke="rgb(255,254,255)" stroke-width="1" opacity="1" d="M 246.5 285 Q 249.5 286.5 246.5 288 L 246.5 285 Z " /><path fill="rgb(255,254,255)" stroke="rgb(255,254,255)" stroke-width="1" opacity="1" d="M 160.5 296 L 162 300 L 159 298.5 L 160.5 296 Z " /><path fill="rgb(255,254,255)" stroke="rgb(255,254,255)" stroke-width="1" opacity="1" d="M 163.5 300 L 166 301 L 165 303.5 L 165.5 305 L 162 302.5 L 163.5 300 Z " /><path fill="rgb(255,254,255)" stroke="rgb(255,254,255)" stroke-width="1" opacity="1" d="M 236 300 L 238 300.5 L 236 301.5 L 236 300 Z " /><path fill="rgb(255,254,255)" stroke="rgb(255,254,255)" stroke-width="1" opacity="1" d="M 239.5 301 Q 242.1 300.2 241 303.5 L 238.5 305 Q 235 303 239.5 301 Z " /><path fill="rgb(255,254,255)" stroke="rgb(255,254,255)" stroke-width="1" opacity="1" d="M 166.5 308 Q 169.5 307.1 168 311.5 L 170 316 Q 173.8 314.5 173 317.5 L 174 320 Q 170.2 321 169 318.5 L 165 309.5 L 166.5 308 Z " /><path fill="rgb(255,254,255)" stroke="rgb(255,254,255)" stroke-width="1" opacity="1" d="M 160 315 L 162 315 L 162 320 L 159 318.5 L 160 315 Z " /><path fill="rgb(255,254,255)" stroke="rgb(255,254,255)" stroke-width="1" opacity="1" d="M 225 318 L 230 318 L 230 320 L 225 320 L 225 318 Z " /><path fill="rgb(255,254,255)" stroke="rgb(255,254,255)" stroke-width="1" opacity="1" d="M 180.5 323 L 182 329 Q 184.7 327.9 184 330.5 L 188 333.5 L 189 337 L 186 336.5 L 186.5 335 L 185 334.5 L 187 333.5 L 182 332 Q 183.5 328.3 180.5 329 L 178 328 Q 177.3 324.2 180.5 323 Z " /><path fill="rgb(255,254,255)" stroke="rgb(255,254,255)" stroke-width="1" opacity="1" d="M 223.5 326 L 224 331 Q 220.7 332.3 222 327.5 L 223.5 326 Z " /><path fill="rgb(255,254,255)" stroke="rgb(255,254,255)" stroke-width="1" opacity="1" d="M 176.5 329 Q 179.5 328.1 178 332.5 Q 176.5 335.5 175 332.5 L 176.5 329 Z " /><path fill="rgb(255,254,255)" stroke="rgb(255,254,255)" stroke-width="1" opacity="1" d="M 218.5 332 Q 223 334 219.5 336 L 215.5 335 L 214 335.5 L 218.5 332 Z " /><path fill="rgb(255,255,255)" stroke="rgb(255,255,255)" stroke-width="1" opacity="1" d="M 0 0 L 400 0 L 400 400 L 0 400 L 0 0 Z M 207 47 L 205 50 L 203 50 L 203 49 L 192 48 L 193 52 L 193 53 Q 195 54 194 51 L 197 51 L 197 49 L 201 50 Q 202 53 204 51 L 205 52 L 203 53 L 200 51 L 197 55 L 194 56 L 196 57 L 192 60 L 194 60 L 194 61 Q 190 60 192 64 L 190 65 L 188 64 L 186 64 L 178 64 L 176 66 L 176 71 Q 180 70 179 73 L 183 72 Q 184 74 185 72 L 181 69 L 184 65 L 187 67 L 186 69 L 185 68 L 184 70 Q 186 73 188 69 L 184 74 L 185 75 L 182 73 L 183 76 L 182 79 L 180 80 L 180 82 L 180 83 L 178 80 L 177 80 L 165 80 L 164 82 L 168 84 Q 169 87 165 86 L 163 95 Q 167 97 166 93 L 169 91 L 170 91 Q 166 92 167 98 L 166 98 L 166 96 L 162 96 L 163 91 L 162 88 Q 163 85 160 86 L 160 100 L 159 101 L 160 105 L 162 104 L 162 106 L 162 108 L 161 107 L 160 110 L 160 112 L 162 112 L 163 112 L 161 113 L 157 111 L 153 113 L 152 111 L 149 113 L 151 117 L 149 118 Q 146 117 147 114 L 148 112 L 144 113 L 144 126 L 146 125 L 146 128 L 148 132 L 146 130 L 144 132 Q 143 136 146 138 L 145 141 L 145 138 L 144 136 Q 141 136 142 143 Q 145 144 141 146 L 141 145 L 135 144 L 134 147 Q 129 148 131 144 L 128 144 L 128 153 L 130 152 L 129 154 L 130 155 L 133 151 Q 132 148 135 149 Q 136 147 138 150 L 138 149 L 139 149 L 137 154 L 136 152 L 133 157 L 135 158 L 131 162 L 129 161 L 129 158 Q 132 159 131 157 L 130 157 L 128 157 L 128 160 L 112 160 L 112 180 L 115 178 L 116 179 L 111 185 L 112 189 Q 115 190 111 192 L 109 191 L 104 192 Q 102 190 101 193 L 102 197 L 100 198 Q 102 190 96 192 L 96 208 L 95 209 L 96 212 L 95 217 L 96 219 Q 95 221 98 220 L 99 217 L 99 221 L 95 223 L 97 225 L 108 223 L 109 224 L 107 220 L 108 217 L 108 220 L 111 221 L 110 220 L 109 222 Q 110 224 112 222 L 114 226 L 113 225 L 112 227 Q 113 229 115 227 Q 120 230 115 232 L 116 230 L 115 228 L 112 233 Q 113 237 111 239 L 114 244 Q 111 245 112 250 L 116 250 L 116 249 L 120 252 Q 121 254 118 253 L 118 256 L 124 256 L 124 254 L 126 254 L 125 256 L 127 256 L 128 259 L 128 272 L 141 272 L 141 271 Q 140 268 139 270 L 136 269 L 141 267 L 142 272 L 149 275 L 148 277 L 147 276 L 145 275 L 144 280 L 146 279 L 148 284 Q 152 285 150 281 Q 146 278 151 276 L 150 278 L 153 280 L 152 279 L 150 280 L 152 284 L 155 283 L 158 288 L 157 291 Q 159 295 161 292 Q 159 294 162 296 L 159 298 L 162 302 L 159 304 L 160 305 L 160 312 L 162 312 L 162 304 L 165 305 Q 167 306 166 304 L 167 304 Q 168 309 165 310 L 169 317 L 169 318 L 168 317 Q 167 314 163 315 Q 162 320 165 321 L 169 319 L 174 320 L 171 309 L 169 309 L 171 308 L 169 306 L 171 304 Q 169 306 172 308 L 171 309 L 173 309 L 177 315 Q 176 317 179 316 Q 181 317 179 319 L 181 319 L 182 321 L 179 319 L 175 325 L 176 328 Q 179 329 175 331 L 176 336 Q 181 338 179 333 L 184 332 L 185 334 Q 181 333 182 336 L 185 335 Q 186 338 189 337 L 190 335 L 191 337 L 192 335 L 192 337 L 194 336 L 192 339 L 193 342 L 194 339 L 198 343 L 196 343 L 198 346 L 199 347 Q 196 344 192 345 L 193 348 L 192 350 Q 191 354 196 352 L 195 351 L 197 350 Q 196 353 199 352 L 201 349 L 201 352 Q 206 353 208 351 Q 210 344 207 342 Q 203 343 204 347 L 200 348 L 202 344 L 205 343 L 204 342 L 205 340 Q 207 341 206 339 L 206 337 L 208 337 L 215 324 L 219 322 L 217 325 L 218 328 L 220 328 L 220 322 Q 223 321 222 325 L 222 327 Q 220 332 224 331 L 223 326 L 224 323 L 223 318 L 220 318 Q 221 315 223 317 L 224 312 L 228 309 L 228 312 L 230 311 L 228 307 L 230 307 L 229 305 Q 231 300 233 304 L 233 305 L 232 304 L 231 304 L 232 308 L 229 313 Q 228 315 232 314 L 234 312 Q 232 305 236 304 L 239 305 L 241 304 L 240 299 L 239 299 L 238 297 L 236 297 Q 235 294 238 295 L 241 291 L 240 289 L 243 285 Q 245 281 247 283 L 246 281 Q 248 276 250 279 L 253 278 L 254 281 Q 253 283 256 282 L 256 276 L 255 275 Q 256 272 253 273 L 258 264 L 262 265 L 261 271 L 258 272 L 266 272 L 268 272 Q 271 273 269 269 L 267 270 L 263 269 L 265 265 L 264 265 L 259 263 Q 261 259 263 263 L 264 260 L 263 257 L 265 256 L 269 250 Q 271 251 270 248 Q 271 245 273 247 L 278 243 Q 279 240 276 241 Q 275 238 278 239 L 279 237 L 279 239 L 279 243 L 280 245 L 281 243 L 282 245 L 286 243 Q 288 244 287 242 Q 286 239 282 240 L 279 236 L 280 234 Q 279 231 282 232 L 282 230 L 285 231 L 287 228 L 286 225 L 288 222 L 289 222 L 290 224 L 299 224 Q 301 223 299 222 Q 300 219 296 220 L 297 216 L 296 213 L 295 215 L 294 215 Q 297 213 296 209 L 296 207 L 295 204 L 296 202 Q 295 199 302 200 Q 303 202 304 200 L 304 197 L 296 197 L 295 192 L 293 193 L 290 192 L 289 195 L 293 198 L 292 201 Q 290 194 285 192 L 286 190 L 285 190 L 282 186 L 282 184 L 282 169 L 280 166 L 273 166 L 273 169 L 275 168 Q 277 169 276 173 L 278 172 L 279 175 L 279 174 L 280 174 Q 281 177 278 176 L 279 180 L 280 181 L 276 176 Q 277 172 274 173 L 272 169 L 272 167 L 271 165 L 272 162 L 275 163 L 280 162 L 279 160 Q 271 161 272 159 L 270 159 Q 269 156 272 157 L 272 152 L 265 152 L 264 148 L 266 148 Q 269 149 268 147 Q 271 145 267 143 L 263 146 L 263 145 L 259 144 L 260 147 L 260 148 L 251 134 L 253 133 L 254 138 L 256 139 L 255 134 L 257 130 L 256 128 L 249 128 L 251 132 L 248 130 Q 247 126 250 127 Q 251 124 248 125 L 246 123 L 245 123 L 241 117 Q 240 114 243 115 L 243 113 L 247 115 L 243 115 Q 243 120 247 122 L 248 120 L 246 119 Q 245 116 248 117 L 248 112 L 242 112 L 241 114 L 237 112 L 238 109 Q 237 106 236 108 L 234 106 L 234 104 L 234 97 L 232 85 L 226 85 L 225 87 L 228 89 L 227 92 L 222 85 L 223 82 L 223 72 L 222 75 L 221 70 L 219 71 L 215 68 L 217 66 L 220 68 Q 222 62 216 64 L 214 64 L 211 65 L 212 67 L 213 68 L 211 67 L 211 66 L 210 65 L 206 60 L 207 58 L 207 60 L 208 60 Q 209 55 206 56 L 209 49 L 207 47 Z M 196 52 L 195 54 L 197 53 L 196 52 Z M 192 56 L 192 58 L 194 57 L 192 56 Z M 222 64 L 222 69 L 224 69 L 224 64 L 222 64 Z M 178 73 L 176 76 L 178 75 L 180 77 L 179 79 L 181 79 L 182 76 L 178 73 Z M 177 76 L 177 78 L 179 77 L 177 76 Z M 161 80 L 159 82 Q 161 86 163 83 Q 164 79 161 80 Z M 224 82 L 223 85 L 224 85 L 224 82 Z M 238 88 L 239 96 L 240 96 L 240 89 L 238 88 Z M 238 102 L 236 105 L 239 108 L 240 105 L 239 105 L 238 102 Z M 240 108 L 239 111 L 240 111 L 240 108 Z M 253 112 L 251 114 L 252 116 L 256 117 L 256 112 L 253 112 Z M 253 122 Q 251 125 254 124 L 253 122 Z M 131 154 L 131 156 L 133 155 L 131 154 Z M 133 157 L 130 161 L 133 159 L 133 157 Z M 287 168 L 285 171 L 286 175 Q 285 178 288 177 L 288 170 L 287 168 Z M 286 182 L 284 187 L 285 188 L 287 185 L 286 182 Z M 287 187 L 287 190 L 286 192 L 288 193 Q 289 188 287 187 Z M 300 208 Q 298 213 304 211 Q 306 206 300 208 Z M 303 214 L 301 217 L 304 218 L 304 214 L 303 214 Z M 286 231 L 285 234 L 286 234 L 286 231 Z M 277 245 Q 276 248 279 247 Q 280 244 277 245 Z M 273 248 L 268 254 Q 271 255 270 253 L 271 253 L 270 256 L 266 255 L 264 261 Q 265 263 267 261 L 269 262 Q 272 261 271 257 L 275 255 L 277 250 L 273 248 Z M 288 248 L 287 251 L 284 252 L 283 255 L 283 256 L 288 256 L 288 248 Z M 281 251 L 280 256 L 281 256 L 281 251 Z M 112 254 Q 111 257 114 256 Q 115 253 112 254 Z M 272 264 L 271 267 L 272 267 L 272 264 Z M 260 266 L 258 268 Q 255 267 256 270 Q 254 271 257 272 L 257 270 L 260 269 L 260 266 Z M 248 280 L 248 283 L 248 285 L 248 286 L 246 283 L 244 286 L 246 285 L 246 287 L 244 288 L 250 288 L 250 282 L 251 281 L 248 280 Z M 155 284 L 152 285 L 153 290 L 157 288 L 155 284 Z M 145 285 L 143 288 L 146 289 L 148 289 L 151 288 L 150 285 L 147 286 L 145 285 Z M 173 311 L 174 317 L 176 318 L 175 313 L 173 311 Z M 160 315 L 159 319 L 162 320 L 162 315 L 160 315 Z M 177 317 L 177 319 L 179 318 L 177 317 Z M 225 318 L 225 320 L 230 320 L 230 318 L 225 318 Z M 217 325 Q 217 329 215 328 L 213 331 L 215 331 L 213 334 L 215 336 Q 220 337 221 335 L 218 332 L 217 325 Z M 213 331 L 211 333 Q 212 335 209 334 Q 208 337 213 336 L 212 335 L 213 333 L 213 331 Z M 208 338 L 206 341 L 208 342 L 208 338 Z M 195 341 L 193 343 L 195 344 L 195 341 Z " /><path fill="rgb(255,255,255)" stroke="rgb(255,255,255)" stroke-width="1" opacity="1" d="M 188 66 L 190 66.5 L 188 67.5 L 188 66 Z " /><path fill="rgb(255,255,255)" stroke="rgb(255,255,255)" stroke-width="1" opacity="1" d="M 213.5 69 L 214.5 72 L 216 72 L 216 75 Q 218.7 73.9 218 76.5 L 221 80.5 L 219 81.5 L 218 77.5 L 213 71.5 L 213.5 69 Z " /><path fill="rgb(255,255,255)" stroke="rgb(255,255,255)" stroke-width="1" opacity="1" d="M 177.5 83 L 178.5 85 Q 176.3 84.3 177 86.5 L 175 87.5 L 177.5 83 Z " /><path fill="rgb(255,255,255)" stroke="rgb(255,255,255)" stroke-width="1" opacity="1" d="M 174.5 84 L 175 86 L 172 87.5 Q 172.8 89.8 170.5 89 L 171 87.5 L 172.5 85 L 174.5 84 Z " /><path fill="rgb(255,255,255)" stroke="rgb(255,255,255)" stroke-width="1" opacity="1" d="M 173.5 89 L 173 90.5 L 174 92.5 L 172 93 L 171.5 96 L 171 92.5 L 173.5 89 Z " /><path fill="rgb(255,255,255)" stroke="rgb(255,255,255)" stroke-width="1" opacity="1" d="M 229.5 90 L 230 92.5 L 228 93.5 L 229.5 90 Z " /><path fill="rgb(255,255,255)" stroke="rgb(255,255,255)" stroke-width="1" opacity="1" d="M 231.5 92 L 232 95.5 L 231 95.5 L 231.5 92 Z " /><path fill="rgb(255,255,255)" stroke="rgb(255,255,255)" stroke-width="1" opacity="1" d="M 228.5 96 L 230.5 99 L 231.5 97 L 232 98.5 L 231.5 101 L 228.5 96 Z " /><path fill="rgb(255,255,255)" stroke="rgb(255,255,255)" stroke-width="1" opacity="1" d="M 169.5 99 L 168 101.5 L 167.5 103 L 167 101.5 L 169.5 99 Z " /><path fill="rgb(255,255,255)" stroke="rgb(255,255,255)" stroke-width="1" opacity="1" d="M 163.5 108 L 162.5 110 L 163.5 108 Z " /><path fill="rgb(255,255,255)" stroke="rgb(255,255,255)" stroke-width="1" opacity="1" d="M 158.5 115 L 159.5 117 L 158.5 115 Z " /><path fill="rgb(255,255,255)" stroke="rgb(255,255,255)" stroke-width="1" opacity="1" d="M 156.5 116 L 158 118.5 L 156 119.5 L 157 117.5 L 156.5 116 Z " /><path fill="rgb(255,255,255)" stroke="rgb(255,255,255)" stroke-width="1" opacity="1" d="M 155.5 121 L 156 123 L 153 124.5 L 152.5 128 L 152 124.5 L 155.5 121 Z " /><path fill="rgb(255,255,255)" stroke="rgb(255,255,255)" stroke-width="1" opacity="1" d="M 149.5 128 L 152 129.5 L 150 130 L 149.5 132 L 148 129.5 L 149.5 128 Z " /><path fill="rgb(255,255,255)" stroke="rgb(255,255,255)" stroke-width="1" opacity="1" d="M 262.5 152 L 265 153.5 L 263.5 154 L 262.5 152 Z " /><path fill="rgb(255,255,255)" stroke="rgb(255,255,255)" stroke-width="1" opacity="1" d="M 267.5 153 Q 272.3 151.7 271 155 Q 267.2 155.8 267.5 153 Z " /><path fill="rgb(255,255,255)" stroke="rgb(255,255,255)" stroke-width="1" opacity="1" d="M 265.5 155 L 268 160 L 271 160.5 L 270.5 163 L 268.5 163 L 266 160.5 L 267 158.5 Q 264 157.5 265.5 155 Z " /><path fill="rgb(255,255,255)" stroke="rgb(255,255,255)" stroke-width="1" opacity="1" d="M 128.5 162 L 130 164.5 L 129 164.5 L 128.5 162 Z " /><path fill="rgb(255,255,255)" stroke="rgb(255,255,255)" stroke-width="1" opacity="1" d="M 125.5 165 L 129 166.5 L 127.5 169 L 127 166 L 124 167.5 L 125 171.5 L 123 175.5 L 121.5 178 L 120 178.5 L 122 179.5 L 120 180 L 115.5 187 L 117 184.5 L 118 182.5 L 117 179.5 L 120 178 L 120.5 176 L 122 176.5 L 123 174.5 L 123 172.5 L 124 169 L 120.5 170 L 120.5 169 L 125.5 165 Z " /><path fill="rgb(255,255,255)" stroke="rgb(255,255,255)" stroke-width="1" opacity="1" d="M 115 168 L 117 168.5 L 115 174.5 L 115.5 176 Q 112.1 176.9 114 171.5 L 115 168 Z " /><path fill="rgb(255,255,255)" stroke="rgb(255,255,255)" stroke-width="1" opacity="1" d="M 119.5 171 L 121 171.5 L 118.5 176 L 118 172.5 L 119.5 171 Z " /><path fill="rgb(255,255,255)" stroke="rgb(255,255,255)" stroke-width="1" opacity="1" d="M 113.5 187 L 115 189.5 L 114 189.5 L 113.5 187 Z " /><path fill="rgb(255,255,255)" stroke="rgb(255,255,255)" stroke-width="1" opacity="1" d="M 104.5 193 L 105.5 195 Q 102.7 195.7 104.5 193 Z " /><path fill="rgb(255,255,255)" stroke="rgb(255,255,255)" stroke-width="1" opacity="1" d="M 109.5 194 L 112 195.5 L 109 196 L 109.5 194 Z " /><path fill="rgb(255,255,255)" stroke="rgb(255,255,255)" stroke-width="1" opacity="1" d="M 105.5 196 L 107 198.5 L 105 197.5 L 105.5 196 Z " /><path fill="rgb(255,255,255)" stroke="rgb(255,255,255)" stroke-width="1" opacity="1" d="M 110.5 197 L 109 199.5 L 108.5 201 L 108 199.5 L 110.5 197 Z " /><path fill="rgb(255,255,255)" stroke="rgb(255,255,255)" stroke-width="1" opacity="1" d="M 106.5 202 L 105.5 204 L 106.5 202 Z " /><path fill="rgb(255,255,255)" stroke="rgb(255,255,255)" stroke-width="1" opacity="1" d="M 292.5 202 L 293.5 204 L 292.5 202 Z " /><path fill="rgb(255,255,255)" stroke="rgb(255,255,255)" stroke-width="1" opacity="1" d="M 104.5 205 L 105 206.5 L 103 209.5 Q 105.3 210.8 102.5 212 L 102 209.5 L 104.5 205 Z " /><path fill="rgb(255,255,255)" stroke="rgb(255,255,255)" stroke-width="1" opacity="1" d="M 99.5 208 L 101 211.5 L 99.5 212 Q 96.8 210.8 99 209.5 L 99.5 208 Z " /><path fill="rgb(255,255,255)" stroke="rgb(255,255,255)" stroke-width="1" opacity="1" d="M 105 215 L 107 215.5 L 105 216.5 L 105 215 Z " /><path fill="rgb(255,255,255)" stroke="rgb(255,255,255)" stroke-width="1" opacity="1" d="M 293.5 218 L 295 218.5 L 292.5 222 L 292 219.5 L 293.5 218 Z " /><path fill="rgb(255,255,255)" stroke="rgb(255,255,255)" stroke-width="1" opacity="1" d="M 102.5 220 L 104 220.5 L 101 222.5 L 102.5 220 Z " /><path fill="rgb(255,255,255)" stroke="rgb(255,255,255)" stroke-width="1" opacity="1" d="M 285.5 226 L 285 227.5 L 284.5 229 L 284 227.5 L 285.5 226 Z " /><path fill="rgb(255,255,255)" stroke="rgb(255,255,255)" stroke-width="1" opacity="1" d="M 119.5 233 L 124 238.5 L 125 243.5 L 123 244.5 L 124 240.5 L 122.5 241 L 120 241.5 L 122 242.5 L 119 244 Q 118 240.2 120.5 239 L 123 240 L 121.5 237 L 120 237.5 L 120.5 236 Q 117.4 236.7 119.5 233 Z " /><path fill="rgb(255,255,255)" stroke="rgb(255,255,255)" stroke-width="1" opacity="1" d="M 126.5 243 L 128 247 Q 130.7 245.9 130 248.5 Q 133.1 250.3 131.5 252 L 133 252.5 L 131.5 253 L 129 251.5 L 131 250.5 L 127 247.5 L 128 250.5 L 127 250.5 L 125.5 247 L 124 247.5 L 125.5 245 L 126.5 247 L 127 244.5 L 126.5 243 Z " /><path fill="rgb(255,255,255)" stroke="rgb(255,255,255)" stroke-width="1" opacity="1" d="M 131.5 256 L 133.5 259 Q 131.3 259.8 132 257.5 L 131.5 256 Z " /><path fill="rgb(255,255,255)" stroke="rgb(255,255,255)" stroke-width="1" opacity="1" d="M 135.5 256 L 138 261.5 L 136 260.5 L 135.5 256 Z " /><path fill="rgb(255,255,255)" stroke="rgb(255,255,255)" stroke-width="1" opacity="1" d="M 139.5 263 L 142 264.5 L 141.5 266 L 141 264 L 139.5 263 Z " /><path fill="rgb(255,255,255)" stroke="rgb(255,255,255)" stroke-width="1" opacity="1" d="M 136 265 L 138 265.5 L 136 266.5 L 136 265 Z " /><path fill="rgb(255,255,255)" stroke="rgb(255,255,255)" stroke-width="1" opacity="1" d="M 143 268 L 145 268.5 L 144.5 270 L 148 272.5 L 145.5 271 L 143 269.5 L 143 268 Z " /><path fill="rgb(255,255,255)" stroke="rgb(255,255,255)" stroke-width="1" opacity="1" d="M 163.5 295 L 168 301.5 L 166 300.5 L 163.5 295 Z " /><path fill="rgb(255,255,255)" stroke="rgb(255,255,255)" stroke-width="1" opacity="1" d="M 234.5 298 L 236 298.5 L 232.5 301 L 234.5 298 Z " /><path fill="rgb(255,255,255)" stroke="rgb(255,255,255)" stroke-width="1" opacity="1" d="M 219 319 L 221 319.5 L 219 320.5 L 219 319 Z " /><path fill="rgb(255,255,255)" stroke="rgb(255,255,255)" stroke-width="1" opacity="1" d="M 181.5 322 L 184 323.5 L 184 325.5 L 188 329.5 L 185.5 330 L 183 327.5 Q 183.4 322.8 181.5 322 Z " /><path fill="rgb(255,255,255)" stroke="rgb(255,255,255)" stroke-width="1" opacity="1" d="M 188.5 331 L 189 333 L 191 333.5 L 189.5 334 L 188.5 331 Z " /><path fill="rgb(255,255,255)" stroke="rgb(255,255,255)" stroke-width="1" opacity="1" d="M 204.5 348 L 205 351 Q 202.3 352.1 203 349.5 L 204.5 348 Z " /><path fill="rgb(3,4,13)" stroke="rgb(3,4,13)" stroke-width="1" opacity="1" d="M 199 51 Q 201.7 49.9 201 52.5 Q 203.8 54.2 203 59.5 L 202 60.5 L 202 69.5 L 201 70.5 L 201 78.5 L 200 79.5 L 200 87.5 L 198 97.5 L 198 106.5 L 197 107.5 L 195 133.5 L 194 134.5 L 194 143.5 L 193 144.5 L 193 152.5 L 192 153.5 L 192 161.5 L 190 171.5 L 188 198.5 L 187 199.5 L 221 200 L 217 233 Q 237.3 230.1 249.5 218 L 255 224.5 Q 240.4 238.7 216 242 L 215 245.5 L 213 269.5 L 212 270.5 L 210 294.5 L 209 295.5 L 207 319.5 L 206 320.5 L 205 336.5 L 200.5 344 L 198 342.5 Q 194.8 340.2 196 333.5 L 197 332.5 L 197 324.5 L 198 323.5 L 199 307.5 L 200 306.5 L 200 299.5 L 201 298.5 L 202 282.5 L 203 281.5 L 207 243 L 187.5 243 L 167.5 239 L 141 226 L 145.5 218 Q 156.5 226.5 171.5 231 L 186.5 234 L 208 234 L 209 231.5 L 209 223.5 L 210 222.5 L 211 209 L 178.5 209 Q 177.4 208.9 178 203.5 L 179 202.5 L 180 184.5 L 181 183.5 L 181 175.5 L 182 174.5 L 182 166.5 L 183 165.5 L 183 157.5 L 184 156.5 L 184 148.5 L 186 138.5 L 186 129.5 L 187 128.5 L 187 120.5 L 188 119.5 L 188 111.5 L 189 110.5 L 189 102.5 L 191 92.5 L 193 65.5 L 194 60.5 L 199 51 Z " /><path fill="rgb(3,4,13)" stroke="rgb(3,4,13)" stroke-width="1" opacity="1" d="M 158 147 L 167 147 L 167 167 L 158 167 L 158 147 Z " /><path fill="rgb(3,4,13)" stroke="rgb(3,4,13)" stroke-width="1" opacity="1" d="M 218 147 L 226 147 L 226 167 L 218 167 L 218 147 Z " /><path fill="rgb(195,204,235)" stroke="rgb(195,204,235)" stroke-width="1" opacity="1" d="M 203.5 56 L 269 164.5 L 270 169 Q 272.7 167.9 272 170.5 L 296 210.5 L 289 218.5 L 251 274 Q 248.3 272.9 249 275.5 L 205.5 337 L 205 330.5 Q 208.5 329 206 327.5 L 207 323.5 L 207 321.5 L 207 314.5 L 208 313.5 L 209 297.5 L 210 296.5 L 211 280.5 L 212 279.5 L 212 272.5 L 213 271.5 L 216 242 L 234.5 238 L 249.5 229 L 252.5 233 L 255.5 231 L 257 231.5 Q 257.8 227.8 255.5 227 L 255 228.5 L 255.5 230 L 253 229 L 252.5 231 L 251 228.5 L 254 227 L 255 224.5 L 251.5 218 Q 250 220.5 248.5 217 L 247 217.5 L 248 218.5 L 244.5 222 Q 233.3 230.6 217 233 L 219 223.5 L 219 221.5 Q 217.8 216.8 220 215.5 L 220 213.5 L 221 200 L 188.5 200 L 188 199.5 L 188 192.5 L 190.5 178 L 192 183.5 L 190 189.5 L 191 192.5 L 191 194.5 L 190 198.5 L 193.5 196 L 207.5 196 L 208 194 L 193 193.5 L 207 192.5 L 193 192 L 193 177.5 L 190 177 L 190 174.5 L 191 173.5 L 192 155.5 L 194 151.5 Q 191.8 150.3 193 145.5 L 194 144.5 L 195 127.5 L 197 120.5 L 196 118.5 L 198 108.5 L 200 81.5 L 202 79.5 Q 199.5 78 201 72.5 L 202 71.5 L 203.5 56 Z M 206 64 L 206 71 L 204 72 L 206 72 L 207 74 L 208 71 L 208 75 L 208 76 L 212 76 L 211 75 L 211 74 L 206 64 Z M 204 73 L 204 75 L 203 80 L 203 82 Q 204 90 202 95 L 206 96 Q 205 90 208 89 Q 207 85 211 86 L 214 96 L 217 95 L 219 96 L 219 94 Q 218 86 214 82 L 215 80 L 213 76 L 211 79 L 211 81 L 207 81 L 205 77 L 206 75 L 204 73 Z M 221 91 L 222 93 Q 223 90 221 91 Z M 211 92 L 209 94 Q 208 98 212 96 L 212 92 L 211 92 Z M 226 98 L 223 102 L 223 105 L 227 110 L 228 121 L 229 122 L 227 123 L 227 124 L 231 123 L 237 125 L 239 125 L 239 129 L 241 129 L 240 131 L 244 133 L 242 134 L 243 137 L 247 139 L 249 145 Q 253 146 252 144 L 251 144 L 251 143 L 249 138 L 249 136 L 246 134 L 244 128 L 241 127 L 243 127 L 241 123 Q 237 124 239 120 Q 238 117 237 119 Q 233 117 233 113 L 233 111 L 230 108 L 228 108 L 228 104 L 227 104 L 224 104 L 226 101 L 226 98 Z M 203 112 L 201 114 L 201 118 L 198 127 L 199 129 L 204 127 L 204 113 L 203 112 Z M 205 112 L 205 126 L 207 127 L 209 126 L 209 113 L 205 112 Z M 225 124 L 223 128 L 227 129 L 228 127 L 225 124 Z M 205 128 Q 204 136 207 142 Q 206 144 209 143 L 209 129 L 205 128 Z M 200 130 L 199 136 L 199 138 L 197 143 L 198 145 L 200 144 L 199 146 L 199 153 L 203 157 L 203 160 L 204 160 L 204 146 L 200 139 L 200 130 Z M 240 138 L 239 143 L 239 145 L 237 149 Q 238 151 235 150 Q 232 149 232 146 L 229 144 L 228 146 L 231 148 Q 232 150 229 149 L 231 162 Q 230 164 233 163 L 234 157 L 236 155 L 240 156 L 242 145 Q 244 137 240 138 Z M 210 143 L 208 145 L 208 151 L 211 151 L 214 145 Q 213 142 210 143 Z M 218 147 L 218 167 L 221 168 Q 222 166 227 167 Q 229 166 227 165 L 227 147 L 218 147 Z M 255 150 L 255 156 L 258 157 L 260 156 L 259 153 L 255 150 Z M 207 156 Q 204 161 208 160 L 207 156 Z M 261 156 L 259 159 L 260 162 L 260 163 L 256 163 L 256 171 L 259 170 L 266 176 L 268 176 Q 272 177 271 174 L 269 173 Q 266 174 267 170 L 266 170 Q 267 168 264 167 L 265 165 L 263 164 L 261 160 L 263 160 L 261 156 Z M 195 157 L 193 161 L 195 160 L 195 157 Z M 197 157 L 196 160 L 197 160 L 197 157 Z M 213 157 L 207 162 L 208 165 L 212 166 L 211 161 L 215 159 L 213 157 Z M 238 161 L 238 177 L 241 176 L 241 164 L 240 163 Q 241 160 238 161 Z M 230 162 L 230 166 L 228 167 L 230 168 L 228 168 L 225 174 L 228 177 Q 231 178 232 176 L 232 168 L 231 167 L 232 165 L 230 164 L 230 162 Z M 215 167 L 214 170 L 215 170 L 215 167 Z M 209 172 L 207 174 L 210 177 L 212 176 Q 214 170 209 172 Z M 221 172 L 219 174 Q 218 177 222 176 Q 223 178 224 176 L 223 174 Q 224 171 221 172 Z M 273 177 L 271 182 L 271 185 L 275 190 L 276 201 L 277 202 L 275 203 L 275 204 L 279 203 L 287 205 Q 286 208 289 210 L 289 211 L 288 209 L 287 212 L 280 213 L 276 218 Q 278 223 275 225 Q 273 230 279 228 L 281 225 L 280 223 L 281 221 Q 282 216 289 217 L 288 216 L 290 216 L 289 214 L 291 211 L 289 208 L 291 207 Q 290 204 289 206 L 286 199 Q 283 200 284 197 L 282 198 L 282 197 Q 283 193 281 194 L 281 191 L 278 188 Q 274 189 276 184 L 273 183 L 275 183 L 273 177 Z M 212 191 L 210 195 L 213 198 Q 217 199 216 196 L 218 196 L 217 193 Q 216 190 212 191 Z M 223 191 L 223 193 L 219 196 L 222 200 Q 221 202 224 201 L 225 202 Q 227 196 224 195 L 225 193 L 223 191 Z M 273 204 L 271 206 L 272 209 Q 270 213 274 212 Q 277 211 276 207 L 273 204 Z M 224 205 L 221 216 L 223 216 L 220 222 L 221 227 L 219 228 L 220 230 L 222 229 Q 221 226 224 227 Q 225 229 226 227 L 225 226 L 225 225 Q 227 219 224 218 L 225 213 Q 226 207 224 205 Z M 241 207 L 239 209 Q 238 213 244 211 L 245 209 Q 244 206 241 207 Z M 253 207 L 251 209 L 253 211 Q 258 213 257 209 Q 256 206 253 207 Z M 246 213 L 246 215 L 242 216 L 242 218 L 241 217 L 239 218 L 241 221 L 248 216 Q 252 216 254 220 Q 253 222 256 221 L 257 217 L 255 218 L 250 215 L 250 213 L 246 213 Z M 226 224 L 226 226 L 229 226 L 231 225 L 226 224 Z M 272 230 L 272 235 L 275 235 L 274 233 Q 275 229 272 230 Z M 242 235 L 242 237 L 238 238 L 238 241 Q 243 242 245 240 L 244 239 Q 242 241 241 239 L 243 239 L 243 238 L 245 238 L 245 237 L 242 235 Z M 254 237 L 251 240 L 259 243 L 261 250 L 255 254 L 256 260 L 252 259 L 247 261 L 245 256 L 244 271 L 244 273 Q 243 275 246 274 L 249 273 L 247 272 Q 246 269 249 270 L 248 267 L 250 267 L 255 263 Q 254 260 257 261 L 260 257 L 260 253 L 266 249 L 266 247 L 266 242 L 265 244 L 263 243 L 261 240 L 257 239 Q 258 235 254 237 Z M 269 239 L 269 241 L 271 242 Q 272 238 269 239 Z M 227 241 L 225 243 L 227 248 L 227 247 L 228 247 Q 227 249 231 248 L 232 246 L 230 245 L 229 243 Q 230 240 227 241 Z M 220 245 Q 221 248 218 247 L 217 273 L 215 273 Q 214 277 216 279 L 214 279 L 215 281 L 213 285 L 214 287 L 213 291 L 214 294 L 214 293 L 215 293 L 214 295 Q 215 298 213 297 L 213 299 L 212 304 L 215 305 L 216 304 Q 215 297 218 295 L 218 289 L 220 287 L 220 274 Q 223 272 221 271 L 224 269 L 224 264 L 222 264 Q 221 259 224 258 L 222 257 L 220 255 L 224 251 L 225 252 L 225 247 L 224 247 Q 221 248 222 245 L 220 245 Z M 241 256 Q 238 257 240 259 Q 239 262 242 261 L 243 258 L 241 256 Z M 223 272 L 221 274 Q 220 283 224 288 L 225 282 L 225 274 L 223 272 Z M 242 275 Q 238 277 239 282 L 242 282 Q 241 279 244 280 L 243 279 Q 244 274 242 275 Z M 228 288 L 227 293 L 228 296 L 226 299 Q 229 300 228 297 L 233 296 L 234 293 L 232 293 L 234 290 L 228 288 Z M 223 291 L 221 293 L 221 304 L 225 304 L 227 304 L 224 296 L 224 294 Q 225 290 223 291 Z M 211 303 L 210 306 L 211 306 L 211 303 Z M 217 304 L 212 312 L 214 316 L 218 312 L 221 305 L 220 305 L 217 304 Z M 213 316 L 211 318 Q 210 320 213 319 L 213 316 Z M 209 321 L 207 325 Q 205 329 210 328 L 211 325 L 209 325 L 211 322 L 209 321 Z " /><path fill="rgb(121,152,225)" stroke="rgb(121,152,225)" stroke-width="1" opacity="1" d="M 202.5 60 L 203 62.5 L 202 62.5 L 202.5 60 Z " /><path fill="rgb(121,152,225)" stroke="rgb(121,152,225)" stroke-width="1" opacity="1" d="M 193.5 62 L 194 64.5 L 193 65.5 L 191 92.5 L 190 93.5 L 190 101.5 L 189 102.5 L 189 110.5 L 188 111.5 L 188 119.5 L 187 120.5 L 186 138.5 L 185 139.5 L 185 147.5 L 184 148.5 L 184 156.5 L 183 157.5 L 183 165.5 L 182 166.5 L 182 174.5 L 181 175.5 L 178 209 L 210.5 209 Q 211.6 209.1 211 214.5 L 210 215.5 L 209 231.5 L 208 234 L 186.5 234 L 171.5 231 Q 156.5 226.5 145.5 218 L 141 226 L 167.5 239 L 187.5 243 L 207 243 L 203 281.5 L 202 282.5 L 201 298.5 L 200 299.5 L 200 306.5 L 199 307.5 L 198 323.5 L 197 324.5 L 197 332.5 L 195.5 338 L 104 209.5 L 193.5 62 Z M 158 147 L 158 167 L 167 167 L 167 147 L 158 147 Z " /><path fill="rgb(121,152,225)" stroke="rgb(121,152,225)" stroke-width="1" opacity="1" d="M 226.5 147 L 227 166.5 L 226 166.5 L 226.5 147 Z " /><path fill="rgb(121,152,225)" stroke="rgb(121,152,225)" stroke-width="1" opacity="1" d="M 190.5 171 L 191 173.5 L 190 173.5 L 190.5 171 Z " /><path fill="rgb(121,152,225)" stroke="rgb(121,152,225)" stroke-width="1" opacity="1" d="M 247.5 219 L 246.5 221 L 247.5 219 Z " /><path fill="rgb(121,152,225)" stroke="rgb(121,152,225)" stroke-width="1" opacity="1" d="M 251.5 220 L 252.5 222 L 251.5 220 Z " /><path fill="rgb(194,203,238)" stroke="rgb(194,203,238)" stroke-width="1" opacity="1" d="M 205.5 64 L 211 73.5 L 210.5 75 L 215 78.5 L 214 81.5 Q 218.2 85.8 219 93.5 L 218.5 96 L 216.5 95 L 214 96 L 212.5 92 L 212 96 Q 207.9 97.7 209 93.5 L 212 92 Q 213.3 87.4 210.5 86 Q 206.8 84.8 208 88.5 Q 204.5 90.2 206 96 L 202 94.5 Q 204.3 89.8 203 81.5 L 201.5 79 L 203 79.5 L 204 74.5 L 203.5 73 L 205.5 74 L 206 72 L 204 71.5 L 206 71 L 205.5 64 Z M 208 71 L 205 77 L 207 80 Q 206 83 211 81 L 210 80 L 212 77 L 208 76 L 208 75 L 208 71 Z " /><path fill="rgb(194,203,238)" stroke="rgb(194,203,238)" stroke-width="1" opacity="1" d="M 220.5 91 Q 222.8 90.3 222 92.5 L 220.5 91 Z " /><path fill="rgb(194,203,238)" stroke="rgb(194,203,238)" stroke-width="1" opacity="1" d="M 224.5 97 L 227 102.5 L 226.5 104 L 228 104 L 228 108 L 229.5 108 L 233 110.5 L 233 112.5 Q 233.3 117.3 236.5 119 Q 237.8 116.8 239 119.5 Q 237.5 123.9 240.5 123 Q 245.4 126.7 246 134 L 250 136.5 L 249 138.5 L 251 138.5 L 250 140.5 L 252 145 Q 248.3 146.5 249 143.5 L 247 139 L 243 136.5 L 242 133.5 L 244 132.5 L 240 130.5 L 240.5 129 L 239 129 L 239 125 L 236.5 125 L 230.5 123 L 226 124.5 L 228 127.5 L 224.5 129 L 223 125.5 L 229 121.5 L 228 120.5 L 227 109.5 L 223 104.5 L 223 101.5 L 225 98.5 L 224.5 97 Z " /><path fill="rgb(194,203,238)" stroke="rgb(194,203,238)" stroke-width="1" opacity="1" d="M 202.5 112 L 204 112.5 L 204 126.5 L 198.5 129 L 198 126.5 L 199 121.5 L 198.5 120 L 200 120.5 L 201 113.5 L 202.5 112 Z " /><path fill="rgb(194,203,238)" stroke="rgb(194,203,238)" stroke-width="1" opacity="1" d="M 205 112 L 209 112.5 L 209 125.5 L 206.5 127 L 205 125.5 L 205 112 Z " /><path fill="rgb(194,203,238)" stroke="rgb(194,203,238)" stroke-width="1" opacity="1" d="M 205 128 L 209 128 L 209 142.5 L 212.5 143 L 214 146.5 L 211 151 L 208 151 L 208 144.5 L 208.5 143 Q 206.3 143.8 207 141.5 Q 204 136.3 205 128 Z " /><path fill="rgb(194,203,238)" stroke="rgb(194,203,238)" stroke-width="1" opacity="1" d="M 199.5 130 L 200 138.5 L 204 145.5 L 204 159.5 L 203 159.5 L 203 156.5 L 199 152.5 L 199 145.5 L 199.5 144 L 197.5 145 L 197 142.5 L 199 137.5 L 197.5 135 L 199 135.5 L 199.5 130 Z " /><path fill="rgb(194,203,238)" stroke="rgb(194,203,238)" stroke-width="1" opacity="1" d="M 240 138 Q 243.5 136.9 242 144.5 L 240 156 L 235.5 155 L 234 156.5 L 233 163 Q 230.3 164.1 231 161.5 L 229 149 Q 231.7 150.1 231 147.5 L 229.5 148 L 228 147.5 L 230 146.5 L 228 146 L 228.5 144 L 232 145.5 Q 231.5 149.5 234.5 150 Q 237.8 151.1 237 148.5 L 239 144.5 L 239 142.5 L 240 138 Z " /><path fill="rgb(194,203,238)" stroke="rgb(194,203,238)" stroke-width="1" opacity="1" d="M 216.5 145 Q 219.5 146.5 216.5 148 L 216.5 145 Z " /><path fill="rgb(194,203,238)" stroke="rgb(194,203,238)" stroke-width="1" opacity="1" d="M 255 150 L 259 152.5 L 259 154.5 L 263 159.5 L 262 161.5 L 263 164 L 265 164.5 L 264 166.5 Q 267.1 168.3 265.5 170 L 267 170 Q 265.5 173.8 268.5 173 L 271 174 Q 272.3 177.3 267.5 176 L 265.5 176 L 258.5 170 L 256 171 L 256 163 L 260 163 L 260 161.5 L 259 158.5 L 260 156 L 257.5 157 L 255 156 L 255 150 Z " /><path fill="rgb(194,203,238)" stroke="rgb(194,203,238)" stroke-width="1" opacity="1" d="M 206.5 156 L 208 160 L 213.5 157 Q 216.5 158.5 213.5 160 L 211 160.5 L 212 166 L 208 165 L 207 161.5 L 207.5 160 Q 204 160.8 206.5 156 Z " /><path fill="rgb(194,203,238)" stroke="rgb(194,203,238)" stroke-width="1" opacity="1" d="M 194.5 157 L 195 159.5 L 193 160.5 L 194.5 157 Z " /><path fill="rgb(194,203,238)" stroke="rgb(194,203,238)" stroke-width="1" opacity="1" d="M 196.5 157 L 197 159.5 L 196 159.5 L 196.5 157 Z " /><path fill="rgb(194,203,238)" stroke="rgb(194,203,238)" stroke-width="1" opacity="1" d="M 238 161 Q 240.7 159.9 240 162.5 L 241 163.5 L 241 175.5 L 238 177 L 238 161 Z " /><path fill="rgb(194,203,238)" stroke="rgb(194,203,238)" stroke-width="1" opacity="1" d="M 229.5 162 L 230 164 L 232 164.5 L 231 166.5 L 232 167.5 L 232 175.5 Q 231.3 177.8 227.5 177 L 225 173.5 L 228 168 L 230 167.5 L 227 165.5 L 228.5 166 L 230 165.5 L 229.5 162 Z " /><path fill="rgb(194,203,238)" stroke="rgb(194,203,238)" stroke-width="1" opacity="1" d="M 214.5 167 L 215 169.5 L 214 169.5 L 214.5 167 Z " /><path fill="rgb(194,203,238)" stroke="rgb(194,203,238)" stroke-width="1" opacity="1" d="M 208.5 172 Q 213.8 170.3 212 175.5 L 209.5 177 L 207 173.5 L 208.5 172 Z " /><path fill="rgb(194,203,238)" stroke="rgb(194,203,238)" stroke-width="1" opacity="1" d="M 220.5 172 Q 223.8 170.9 223 173.5 L 224 175.5 Q 222.8 178.3 221.5 176 Q 217.8 177.3 219 173.5 L 220.5 172 Z " /><path fill="rgb(194,203,238)" stroke="rgb(194,203,238)" stroke-width="1" opacity="1" d="M 273.5 176 L 273 177.5 L 276 183.5 L 276 188 L 281 190.5 L 280.5 194 Q 283.5 193.2 282 197 L 284 197 Q 282.9 199.7 285.5 199 L 287 198.5 L 287 200.5 L 288.5 206 Q 289.8 203.8 291 206.5 L 289 207.5 L 291 210.5 L 290.5 212 L 292 212.5 L 290.5 213 L 289 212.5 L 290 215.5 Q 289 218 284.5 217 L 281 220.5 L 280 222.5 L 281 224.5 L 278.5 228 Q 273.3 229.8 275 224.5 Q 277.5 223 276 217.5 L 279.5 213 L 287 212 L 288 208.5 L 287 205 L 278.5 203 L 274 204.5 Q 276.8 205.3 276 209.5 L 272 212 L 271 205.5 L 277 201.5 L 276 200.5 L 275 189.5 L 271 184.5 L 271 181.5 L 273.5 176 Z " /><path fill="rgb(194,203,238)" stroke="rgb(194,203,238)" stroke-width="1" opacity="1" d="M 190.5 177 L 193 177.5 L 193 192 L 206.5 192 L 206.5 193 L 193 193.5 L 208 194 L 207.5 196 L 193.5 196 L 190 198.5 L 191 194.5 L 191 192.5 L 190 188.5 L 192 183.5 L 190.5 177 Z " /><path fill="rgb(194,203,238)" stroke="rgb(194,203,238)" stroke-width="1" opacity="1" d="M 211.5 191 Q 216 190 217 192.5 L 218 195.5 L 216 196 Q 217.3 199.3 212.5 198 L 210 194.5 L 211.5 191 Z " /><path fill="rgb(194,203,238)" stroke="rgb(194,203,238)" stroke-width="1" opacity="1" d="M 222.5 191 L 225 192.5 L 224 194.5 Q 226.5 196 225 201.5 L 223.5 201 Q 221.3 201.8 222 199.5 L 219 195.5 L 223 192.5 L 222.5 191 Z " /><path fill="rgb(194,203,238)" stroke="rgb(194,203,238)" stroke-width="1" opacity="1" d="M 223.5 205 Q 225.9 207.1 225 212.5 L 224 217.5 Q 226.5 219 225 224.5 L 224.5 226 Q 227.1 226.7 226 224 L 230.5 224 L 233 224.5 Q 231.7 227.2 230.5 225 L 229 225.5 Q 232.8 227.2 229.5 229 L 228.5 226 L 226.5 229 L 227 227.5 L 226.5 226 L 223.5 230 L 223 228.5 L 223.5 227 Q 221.3 226.3 222 228.5 L 220 229.5 L 219 227.5 L 221 227 L 220 221.5 L 222 216.5 L 221 213.5 L 223.5 205 Z " /><path fill="rgb(194,203,238)" stroke="rgb(194,203,238)" stroke-width="1" opacity="1" d="M 240.5 207 Q 244.3 206.3 245 208.5 L 243.5 211 Q 237.7 213.1 239 208.5 L 240.5 207 Z " /><path fill="rgb(194,203,238)" stroke="rgb(194,203,238)" stroke-width="1" opacity="1" d="M 252.5 207 Q 256.3 206.3 257 208.5 Q 258.4 213.1 252.5 211 L 251 208.5 L 252.5 207 Z " /><path fill="rgb(194,203,238)" stroke="rgb(194,203,238)" stroke-width="1" opacity="1" d="M 246 213 L 250 213 L 250 214.5 L 253.5 217 L 255.5 217 L 257 217.5 Q 253.9 219.3 255.5 221 Q 253.3 221.8 254 219.5 L 252 218.5 L 251.5 220 L 251 218.5 L 251.5 217 Q 248.2 215.9 249 218.5 L 244.5 219 L 242 219.5 L 244 220.5 L 242 221 L 241.5 223 L 239 217.5 L 241 216.5 L 241.5 218 L 242 216 L 246 214.5 L 246 213 Z " /><path fill="rgb(194,203,238)" stroke="rgb(194,203,238)" stroke-width="1" opacity="1" d="M 290.5 217 L 289.5 219 L 290.5 217 Z " /><path fill="rgb(194,203,238)" stroke="rgb(194,203,238)" stroke-width="1" opacity="1" d="M 255.5 227 Q 257.8 227.8 257 231.5 L 254.5 232 L 252.5 233 L 251.5 232 L 248 234.5 L 251 231.5 L 250 230.5 Q 249.3 228.3 251.5 229 L 253.5 229 Q 256 229.7 255.5 227 Z " /><path fill="rgb(194,203,238)" stroke="rgb(194,203,238)" stroke-width="1" opacity="1" d="M 272 230 Q 275 228.8 274 232.5 L 276 232.5 L 273.5 237 Q 271.1 234.7 272 230 Z " /><path fill="rgb(194,203,238)" stroke="rgb(194,203,238)" stroke-width="1" opacity="1" d="M 246.5 233 L 247 234.5 L 244.5 238 L 243 237.5 Q 242.3 239.8 244.5 239 L 243.5 241 Q 237.4 242.1 235 239.5 L 242 236.5 L 241.5 235 L 244.5 236 L 246.5 233 Z " /><path fill="rgb(194,203,238)" stroke="rgb(194,203,238)" stroke-width="1" opacity="1" d="M 247.5 236 L 247.5 239 Q 244.5 237.5 247.5 236 Z " /><path fill="rgb(194,203,238)" stroke="rgb(194,203,238)" stroke-width="1" opacity="1" d="M 253.5 237 Q 257.9 235.5 257 238.5 L 261 240 L 262.5 243 L 264.5 244 L 267.5 240 L 266 242.5 L 265 247.5 L 265.5 249 L 260 252.5 L 260 256.5 L 257 261 Q 254.3 259.9 255 262.5 L 254.5 265 L 252.5 264 Q 248.3 265.3 249 270 Q 246 269 247 272 L 249 272.5 L 245.5 274 Q 243.3 274.8 244 272.5 L 244 270.5 L 244.5 256 L 246.5 261 L 251.5 259 L 256 260 L 255 253.5 L 261 249.5 L 258.5 243 L 251 239.5 L 253.5 237 Z " /><path fill="rgb(194,203,238)" stroke="rgb(194,203,238)" stroke-width="1" opacity="1" d="M 269 239 Q 272 237.8 271 241.5 L 269 240.5 L 269 239 Z " /><path fill="rgb(194,203,238)" stroke="rgb(194,203,238)" stroke-width="1" opacity="1" d="M 226.5 241 Q 229.8 239.9 229 242.5 L 229.5 245 L 232 245.5 L 231 248 Q 227.2 249.5 228 246.5 L 227 246.5 L 226.5 248 L 225 242.5 L 226.5 241 Z " /><path fill="rgb(194,203,238)" stroke="rgb(194,203,238)" stroke-width="1" opacity="1" d="M 220 245 L 222 245 Q 220.9 247.7 223.5 247 L 225 246.5 L 224.5 252 L 223.5 251 L 220 254.5 L 221.5 257 L 224 257.5 Q 220.8 258.9 222 264 L 224 264 L 224 269 L 221 270.5 L 225 273.5 L 225 281.5 L 223.5 288 L 222 286.5 L 220.5 273 L 220 286.5 L 218 288.5 L 216 303.5 L 219.5 305 L 221 303.5 L 221 292.5 L 222.5 291 Q 225.1 290.2 224 293.5 L 224 295.5 L 225.5 299 L 228 295.5 L 227 292.5 L 228 288 L 233.5 289 L 237 288.5 L 233 290.5 L 234 293.5 L 233 296 L 228 297 L 228 299 Q 225.3 297.9 226 300.5 L 227 303.5 L 224.5 304 Q 219.7 302.3 221 306.5 L 213 316.5 L 213 319 Q 210.3 320.1 211 317.5 Q 213.8 316.8 213 312.5 L 213 310.5 L 215 305.5 L 212 304 L 213 298.5 L 212.5 297 Q 215.1 297.8 214 294.5 L 213 290.5 L 214 286.5 L 213 284.5 L 215 280.5 L 213 280.5 Q 216 278 215.5 272 L 217 272.5 L 218 247 Q 221 248 220 245 Z " /><path fill="rgb(194,203,238)" stroke="rgb(194,203,238)" stroke-width="1" opacity="1" d="M 240.5 256 L 243 257.5 L 242 261 Q 239 262.3 240 258.5 Q 237.8 257.3 240.5 256 Z " /><path fill="rgb(194,203,238)" stroke="rgb(194,203,238)" stroke-width="1" opacity="1" d="M 241.5 275 Q 244.5 274.1 243 278.5 L 243.5 280 Q 240.9 279.3 242 282 L 239 282 Q 237.8 276.5 241.5 275 Z " /><path fill="rgb(194,203,238)" stroke="rgb(194,203,238)" stroke-width="1" opacity="1" d="M 210.5 303 L 211 305.5 L 209 306.5 L 210.5 303 Z " /><path fill="rgb(194,203,238)" stroke="rgb(194,203,238)" stroke-width="1" opacity="1" d="M 208.5 320 L 210.5 321 L 212 320.5 L 209 324.5 L 211 325 L 209.5 328 L 207 328.5 L 207.5 330 Q 204.8 328.8 207 327.5 L 206 323.5 L 209 322.5 L 208.5 320 Z " /></svg>